<svg viewBox="0 0 176 144" fill="none" xmlns="http://www.w3.org/2000/svg"><path d="M6.118 5a4 4 0 0 1 4-4H76c6.627 0 12 5.373 12 12v8.483a4 4 0 0 1-4 4H10.118a4 4 0 0 1-4-4V5z" fill="#CCECFF" filter="url(#filter0_i)"/><path d="M76 .5H10.118a4.5 4.5 0 0 0-4.5 4.5v16.483a4.5 4.5 0 0 0 4.5 4.5H84a4.5 4.5 0 0 0 4.5-4.5V13C88.5 6.096 82.904.5 76 .5z" stroke="#87D2FF"/><rect x="1" y="10.793" width="174" height="132.207" rx="4" fill="#CCECFF" filter="url(#filter1_i)"/><rect x=".5" y="10.293" width="175" height="133.207" rx="4.5" stroke="#87D2FF"/><rect x="1" y="10.793" width="174" height="132.207" rx="4" fill="url(#paint0_linear)"/><defs><filter id="filter0_i" x="5.118" y="0" width="83.882" height="26.483" filterUnits="userSpaceOnUse" color-interpolation-filters="sRGB"><feFlood flood-opacity="0" result="BackgroundImageFix"/><feBlend in="SourceGraphic" in2="BackgroundImageFix" result="shape"/><feColorMatrix in="SourceAlpha" values="0 0 0 0 0 0 0 0 0 0 0 0 0 0 0 0 0 0 127 0" result="hardAlpha"/><feOffset dy="2"/><feComposite in2="hardAlpha" operator="arithmetic" k2="-1" k3="1"/><feColorMatrix values="0 0 0 0 1 0 0 0 0 1 0 0 0 0 1 0 0 0 1 0"/><feBlend in2="shape" result="effect1_innerShadow"/></filter><filter id="filter1_i" x="0" y="9.793" width="176" height="134.207" filterUnits="userSpaceOnUse" color-interpolation-filters="sRGB"><feFlood flood-opacity="0" result="BackgroundImageFix"/><feBlend in="SourceGraphic" in2="BackgroundImageFix" result="shape"/><feColorMatrix in="SourceAlpha" values="0 0 0 0 0 0 0 0 0 0 0 0 0 0 0 0 0 0 127 0" result="hardAlpha"/><feOffset dy="2"/><feComposite in2="hardAlpha" operator="arithmetic" k2="-1" k3="1"/><feColorMatrix values="0 0 0 0 1 0 0 0 0 1 0 0 0 0 1 0 0 0 1 0"/><feBlend in2="shape" result="effect1_innerShadow"/></filter><linearGradient id="paint0_linear" x1="88" y1="10.793" x2="88" y2="143" gradientUnits="userSpaceOnUse"><stop stop-color="#fff" stop-opacity=".72"/><stop offset="1" stop-color="#fff" stop-opacity="0"/></linearGradient></defs></svg>
