<svg t="1647225319969" class="icon" viewBox="0 0 1024 1024" version="1.1" xmlns="http://www.w3.org/2000/svg" p-id="12333" width="512" height="512"><path d="M227.328 426.82368L11.776 761.67168c-16.896 26.624-9.728 61.952 16.896 79.36 9.216 6.144 19.968 9.216 31.232 9.216H491.52c31.744 0 57.344-25.6 57.344-57.344 0-10.752-3.072-22.016-9.216-31.232L323.584 426.31168C306.688 399.68768 271.36 392.51968 244.736 409.41568c-7.168 4.608-12.8 10.24-17.408 17.408" fill="#E4E5E5" p-id="12334"></path><path d="M900.096 746.496m-123.904 0a123.904 123.904 0 1 0 247.808 0 123.904 123.904 0 1 0-247.808 0Z" fill="#D8D8D8" p-id="12335"></path><path d="M900.096 623.104c68.096 0 123.904 55.296 123.904 123.904 0 68.096-55.296 123.904-123.904 123.904-68.096 0-123.904-55.296-123.904-123.904 0.512-68.608 55.808-123.904 123.904-123.904" fill="#E4E5E5" p-id="12336"></path><path d="M749.056 746.496c0-81.408 64.512-147.456 144.896-151.04l-208.384-322.56c-16.896-26.624-52.736-34.304-79.36-16.896-6.656 4.608-12.8 10.24-16.896 16.896l-315.392 488.448c-16.896 26.624-9.728 61.952 16.896 79.36 9.216 6.144 19.968 9.216 31.232 9.216h467.968c-25.088-27.136-40.96-63.488-40.96-103.424z" fill="#EFF1F1" p-id="12337"></path><path d="M899.072 680.448h2.048c7.68 0 13.824 6.144 13.312 13.312l-3.072 62.464c-0.512 7.168-5.12 13.312-10.752 13.312h-1.536c-5.632 0-10.24-6.144-10.752-13.312l-3.072-62.464c0-7.168 6.144-13.312 13.824-13.312zM900.096 812.544c-7.168 0-12.8-5.632-12.8-12.8s5.632-12.8 12.8-12.8 12.8 5.632 12.8 12.8-5.632 12.8-12.8 12.8z" fill="#FFFFFF" p-id="12338"></path><path d="M203.776 223.744c0 39.424 32.256 71.68 71.68 71.68s71.68-32.256 71.68-71.68-32.256-71.68-71.68-71.68-71.68 32.256-71.68 71.68" fill="#E4E5E5" p-id="12339"></path></svg>