<?xml version="1.0" standalone="no"?><!DOCTYPE svg PUBLIC "-//W3C//DTD SVG 1.1//EN" "http://www.w3.org/Graphics/SVG/1.1/DTD/svg11.dtd"><svg t="1700816211449" class="icon" viewBox="0 0 1024 1024" version="1.1" xmlns="http://www.w3.org/2000/svg" p-id="4279" xmlns:xlink="http://www.w3.org/1999/xlink" width="200" height="200"><path d="M892.5344 179.0336H131.46666667a47.568 47.568 0 0 0-47.56906667 47.568v459.80586667h856.20053333V226.60266667a47.568 47.568 0 0 0-47.56266666-47.568z" fill="#98DCF0" p-id="4280"></path><path d="M616.4096 495.9872l-165.27573333 190.42133333h330.5248l-165.248-190.42133333z" fill="#699B54" p-id="4281"></path><path d="M587.80373333 686.4128L367.49866667 432.57066667 147.18933333 686.4128h-63.2928v110.98026667a47.568 47.568 0 0 0 47.56906667 47.57333333h761.06346667c26.2688 0 47.568-21.2992 47.568-47.57333333V686.40746667l-352.29333334 0.00533333z" fill="#80BB67" p-id="4282"></path><path d="M718.11626667 337.5872c-0.016 35.02293333 28.36586667 63.4272 63.3952 63.44426667 35.02293333 0.01066667 63.42826667-28.37226667 63.44426666-63.40053334v-0.04373333c0.01066667-35.02933333-28.3712-63.43466667-63.3952-63.44533333-35.02933333-0.01066667-63.4336 28.37226667-63.44533333 63.39626666v0.04906667z" fill="#FFE68E" p-id="4283"></path></svg>