<?xml version="1.0" standalone="no"?><!DOCTYPE svg PUBLIC "-//W3C//DTD SVG 1.1//EN" "http://www.w3.org/Graphics/SVG/1.1/DTD/svg11.dtd"><svg t="1700816982336" class="icon" viewBox="0 0 1024 1024" version="1.1" xmlns="http://www.w3.org/2000/svg" p-id="4312" xmlns:xlink="http://www.w3.org/1999/xlink" width="200" height="200"><path d="M589.76 32l314.1792 319.9872v528c0 61.872-49.2192 112.0128-109.9632 112.0128H228.4496c-60.744 0-109.968-50.184-109.968-112.0128V144.0128C118.4864 82.1408 167.7104 32 228.4544 32H589.76z" fill="#627CFE" p-id="4313"></path><path d="M903.9392 351.9872h-198.672c-60.7008 0-115.5072-55.7712-115.5072-117.648V32l314.1792 319.9872z" fill="#FFFFFF" fill-opacity=".4" p-id="4314"></path><path d="M519.2 600.7136v62.2704l113.28 68.8128v-199.728z" fill="#FFFFFF" p-id="4315"></path><path d="M533.12 512.1296H296.6096a21.0768 21.0768 0 0 0-20.904 21.2064v197.3712c0 11.6064 9.2976 21.2496 20.8608 21.2496h236.7264a21.0768 21.0768 0 0 0 20.8608-21.2496v-197.544a21.2064 21.2064 0 0 0-21.0336-21.0336zM365.984 706.4v-148.8864L485.12 631.952 365.984 706.4z" fill="#FFFFFF" p-id="4316"></path></svg>