<?xml version="1.0" encoding="UTF-8"?>
<svg width="128px" height="128px" viewBox="0 0 128 128" version="1.1" xmlns="http://www.w3.org/2000/svg" xmlns:xlink="http://www.w3.org/1999/xlink">
    <title>MUSIC</title>
    <defs>
        <linearGradient x1="50%" y1="0%" x2="50%" y2="58.1471904%" id="linearGradient-1">
            <stop stop-color="#28D1CB" offset="0%"></stop>
            <stop stop-color="#12BE73" offset="100%"></stop>
        </linearGradient>
    </defs>
    <g id="MUSIC" stroke="none" stroke-width="1" fill="none" fill-rule="evenodd">
        <rect id="b" fill="#FFFFFF" x="0" y="0" width="128" height="128"></rect>
        <path d="M64,14 C72.4483442,14 80.4073017,16.0953133 87.3855527,19.7946202 L91.3795538,14.3922291 L92.8683857,23.1708027 C105.654261,32.2275489 114,47.1391486 114,64 C114,91.6142375 91.6142375,114 64,114 C36.3857625,114 14,91.6142375 14,64 C14,36.3857625 36.3857625,14 64,14 Z" id="2" fill="#FFDC00"></path>
        <path d="M91.3795538,14.3922291 C86.2549679,28.4205314 77.1060351,38.6115644 63.9327556,44.9653284 L84.6058278,80.2992429 C86.7584746,83.2668979 88,86.7605253 88,90.5 C88,101.269553 77.7025492,110 65,110 C52.2974508,110 42,101.269553 42,90.5 C42,79.7304474 52.2974508,71 65,71 C67.2645579,71 69.4526763,71.2774735 71.519637,71.7945074 L46.9380142,29.7805425 C45.9674879,28.1217263 46.5254571,25.9902231 48.1842733,25.0196968 L48.1929484,25.0146381 L48.2190823,24.9995329 C49.139247,24.4682756 50.2008718,24.4022097 51.1309527,24.7290279 C62.1583823,26.0933391 75.5747915,22.6475436 91.3795538,14.3922291 Z" id="1" fill="url(#linearGradient-1)"></path>
    </g>
</svg>