<?xml version="1.0" encoding="UTF-8"?>
<svg width="128px" height="128px" viewBox="0 0 128 128" version="1.1" xmlns="http://www.w3.org/2000/svg" xmlns:xlink="http://www.w3.org/1999/xlink">
    <title>网易云课堂备份 5</title>
    <defs>
        <linearGradient x1="50%" y1="0%" x2="50%" y2="100%" id="linearGradient-1">
            <stop stop-color="#FFEFBC" offset="0%"></stop>
            <stop stop-color="#FFD237" offset="100%"></stop>
        </linearGradient>
        <linearGradient x1="50%" y1="0.304098063%" x2="50%" y2="100%" id="linearGradient-2">
            <stop stop-color="#FF2A2F" offset="0%"></stop>
            <stop stop-color="#CA0000" offset="100%"></stop>
        </linearGradient>
    </defs>
    <g id="网易云课堂备份-5" stroke="none" stroke-width="1" fill="none" fill-rule="evenodd">
        <rect id="5" fill="url(#linearGradient-1)" x="0" y="0" width="128" height="128"></rect>
        <path d="M21.9634259,97.479425 C49.6563379,118.438595 95.5933994,100.230554 101.993007,79.8192062 C108.392615,59.4078584 90.9755027,64.8263175 88.6197609,58.9055869 C86.1453292,55.3436829 95.2044678,49.304684 86.8050657,42.8868723 C78.4056636,36.4690605 66.5288546,47.8248145 63.4325197,45.7660291 C60.3361847,43.7072438 72.1662217,32.1600451 54.7962996,29.8705513 C37.4263774,27.5810576 -5.72948601,76.5202548 21.9634259,97.479425 Z" id="4" fill="url(#linearGradient-2)"></path>
        <path d="M52.2425587,99.7704348 C70.1918131,99.7704348 86,91.2788853 86,79 C86,66.7211147 74.3190053,57.1949462 56.369751,57.1949462 C38.4204966,57.1949462 21,67.4020203 21,79 C21,90.5979797 34.2933043,99.7704348 52.2425587,99.7704348 Z" id="3" fill="#FFFFFF"></path>
        <path d="M53.5577915,65.9957159 C63.2227747,65.9957159 68.9443193,71.6810607 68.9443193,79.965332 C68.9443193,88.2496032 60.2927902,95.8231421 50.6278071,95.8231421 C40.962824,95.8231421 34.7837826,89.2842712 34.7837826,81 C34.7837826,72.7157288 43.8928084,65.9957159 53.5577915,65.9957159 Z M46.5,79 C43.4624339,79 41,81.2385763 41,84 C41,86.7614237 43.4624339,89 46.5,89 C49.5375661,89 52,86.7614237 52,84 C52,81.2385763 49.5375661,79 46.5,79 Z M56,77 C54.8954305,77 54,77.8954305 54,79 C54,80.1045695 54.8954305,81 56,81 C57.1045695,81 58,80.1045695 58,79 C58,77.8954305 57.1045695,77 56,77 Z" id="2" fill="#000000"></path>
        <path d="M89,15 C105.568542,15 119,28.4314575 119,45 C119,46.2395904 118.838069,47.8483811 118.514206,49.8263721 C118.214504,51.6569099 116.632673,53.0007179 114.777764,53.0005992 C113.407422,53.0005115 112.296611,51.8895587 112.296699,50.5192166 C112.29671,50.3467259 112.314708,50.1747065 112.350408,50.0059508 C112.783469,47.9584026 113,46.2897524 113,45 C113,31.745166 102.254834,21 89,21 C88.4400287,21 87.7544294,21.0417235 86.9432022,21.1251704 C85.4761106,21.2760553 84.1644616,20.2090834 84.0135494,18.7419946 C84.0041952,18.6510581 83.9995167,18.5597012 83.9995324,18.4682848 C83.9998371,16.6956861 85.3641918,15.2218514 87.1314984,15.0849796 C87.8631126,15.0283265 88.4859465,15 89,15 Z M89,28.9285714 C97.8760049,28.9285714 105.071429,36.1239951 105.071429,45 C105.071429,45.1721107 105.065583,45.358646 105.053893,45.5596061 C104.941555,47.4911556 103.342497,49.0000108 101.407684,49.0001604 C100.044132,49.0002659 98.9386699,47.8949745 98.9385644,46.5314229 C98.9385544,46.4016055 98.9487831,46.2719895 98.9691672,46.1437825 C99.0373414,45.7147432 99.0714286,45.3334824 99.0714286,45 C99.0714286,39.4377036 94.5622964,34.9285714 89,34.9285714 C88.9227416,34.9285714 88.8417499,34.9304348 88.7570248,34.9341615 C87.2997549,34.9982831 86.0664402,33.868895 86.0023402,32.4116242 L86.0004267,32.3536066 L86.0004267,32.3536066 L85.9997888,31.9288009 C85.9997705,30.2718199 87.343019,28.9285714 89,28.9285714 Z" id="1" fill="#FFA21D"></path>
    </g>
</svg>