<svg width="100" height="100" viewBox="0 0 100 100" fill="none" xmlns="http://www.w3.org/2000/svg">
<path d="M100 0H0V100H100V0Z" fill="#0066FF"/>
<path d="M40.5094 53.1188L40.5 53.2751C40.3438 55.4095 39.8406 57.8688 39.15 60.347L41.6594 58.4532L49.0906 66.897C50.0531 70.3501 48.7469 73.5001 48.7469 73.5001L38.7313 61.7907V61.7813C37.7948 64.8191 36.63 67.7817 35.2469 70.6438C32.8813 75.4251 29.4719 76.3657 25.8813 76.6813C22.2844 76.9938 23.4438 76.1251 23.4438 76.1251C30.5594 70.3188 31.6063 66.9376 33.5719 63.247C34.8188 60.9126 35.7063 56.5188 36.2188 53.1188H24.0625C24.0625 53.1188 24.5625 49.8532 26.0719 48.7563H36.7C36.7625 47.1532 36.5656 38.0001 36.4906 35.0063H31.3219C30.3594 39.7157 27.0344 40.9376 26.2906 41.2938C25.5594 41.6501 23.8219 42.0376 24.0813 41.2938C24.3563 40.5532 26.9063 36.4595 28.6031 29.7126C30.3094 22.9532 35.2906 23.2251 35.2906 23.2251C33.9469 25.5782 32.9469 30.9251 32.9469 30.9251H49.6563C50.7125 30.9251 50.7625 35.0063 50.7625 35.0063H41.2625C41.1906 37.3813 40.9688 43.7751 40.7406 48.7563H50.7313C50.7313 48.7563 52.0094 50.3657 52.0094 53.1188H40.5094ZM76.7656 70.5907H67.6L60.3281 75.4657L58.6094 70.5907H54.4156V30.0688H76.7656V70.5907ZM61.7406 70.2251L67.6813 66.2376H72.4531H72.4438V34.5876H58.8625V66.2376H60.3375L61.7406 70.2251Z" fill="white"/>
</svg>
