<svg width="456.01" height="262.12" xmlns="http://www.w3.org/2000/svg" xmlns:xlink="http://www.w3.org/1999/xlink">
 <defs>
  <linearGradient gradientUnits="userSpaceOnUse" y2="181.12" x2="1" y1="91.35" x1="1" id="color_line_26">
   <stop stop-color="#81cfff" offset="0"/>
   <stop stop-opacity="0" stop-color="#5ecfff" offset="1"/>
  </linearGradient>
  <linearGradient xlink:href="#color_line_26" y2="161.88" x2="455.01" y1="72.11" x1="455.01" id="color_line_26-2"/>
  <linearGradient xlink:href="#color_line_26" y2="199.51" x2="40.9" y1="143.88" x1="40.9" id="color_line_26-3"/>
  <linearGradient xlink:href="#color_line_26" y2="123.17" x2="64.97" y1="95.36" x1="64.97" id="color_line_26-4"/>
  <linearGradient xlink:href="#color_line_26" y2="132.02" x2="397.23" y1="104.2" x1="397.23" id="color_line_26-5"/>
  <linearGradient xlink:href="#color_line_26" y2="189.13" x2="424.75" y1="133.49" x1="424.75" id="color_line_26-6"/>
  <linearGradient xlink:href="#color_line_26" y2="262.12" x2="232.75" y1="224.43" x1="232.75" id="color_line_26-7"/>
  <linearGradient xlink:href="#color_line_26" y2="204.03" x2="349.36" y1="26.68" x1="349.36" id="color_line_26-8"/>
  <linearGradient xlink:href="#color_line_26" y2="204.03" x2="201.45" y1="55.61" x1="201.45" id="color_line_26-9"/>
  <linearGradient xlink:href="#color_line_26" y2="204.03" x2="122.98" y1="26.68" x1="122.98" id="color_line_26-10"/>
  <linearGradient xlink:href="#color_line_26" y2="209.54" x2="273.51" y1="0" x1="273.51" id="color_line_26-11"/>
 </defs>
 <title>暂无历史数据</title>
 <g>
  <title>Layer 1</title>
  <path id="svg_7" fill="url(#color_line_26-7)" opacity="0.4" d="m412.28,262.12c-23,-23 -61,-37.69 -179.53,-37.69s-156.51,14.67 -179.54,37.69l359.07,0z" class="cls-7"/>
  <g id="svg_57">
   <line id="svg_1" stroke="url(#color_line_26)" stroke-width="2px" stroke-miterlimit="10" fill="none" y2="167.12" x2="1" y1="77.35" x1="1" class="cls-1"/>
   <line id="svg_2" stroke="url(#color_line_26-2)" stroke-width="2px" stroke-miterlimit="10" fill="none" y2="147.88" x2="455.01" y1="58.11" x1="455.01" class="cls-2"/>
   <line id="svg_3" stroke="url(#color_line_26-3)" stroke-width="2px" stroke-miterlimit="10" fill="none" y2="185.51" x2="40.9" y1="129.88" x1="40.9" class="cls-3"/>
   <line id="svg_4" stroke="url(#color_line_26-4)" stroke-width="2px" stroke-miterlimit="10" fill="none" y2="109.17" x2="64.97" y1="81.36" x1="64.97" class="cls-4"/>
   <line id="svg_5" stroke="url(#color_line_26-5)" stroke-width="2px" stroke-miterlimit="10" fill="none" y2="118.02" x2="397.23" y1="90.2" x1="397.23" class="cls-5"/>
   <line id="svg_6" stroke="url(#color_line_26-6)" stroke-width="2px" stroke-miterlimit="10" fill="none" y2="175.13" x2="424.75" y1="119.49" x1="424.75" class="cls-6"/>
   <g id="svg_8" opacity="0.7" class="cls-8">
    <path id="svg_9" fill="url(#color_line_26-8)" opacity="0.4" d="m381.66,33.68l-62.59,0a2.71,2.71 0 0 0 -2.82,2.59l0,172.17a2.71,2.71 0 0 0 2.82,2.59l62.59,0a2.72,2.72 0 0 0 2.82,-2.59l0,-172.17a2.72,2.72 0 0 0 -2.82,-2.59zm-52.36,120.32a0.9,0.9 0 0 1 -0.95,0.87l-3.6,0a0.9,0.9 0 0 1 -0.95,-0.87l0,-19.73a0.91,0.91 0 0 1 0.95,-0.87l3.6,0a0.91,0.91 0 0 1 0.95,0.87l0,19.73zm0,-30.23a0.91,0.91 0 0 1 -0.95,0.87l-3.6,0a0.91,0.91 0 0 1 -0.95,-0.87l0,-19.77a0.91,0.91 0 0 1 0.95,-0.87l3.6,0a0.91,0.91 0 0 1 0.95,0.87l0,19.77zm0,-30.24a0.91,0.91 0 0 1 -0.95,0.87l-3.6,0a0.91,0.91 0 0 1 -0.95,-0.87l0,-19.73a0.91,0.91 0 0 1 0.95,-0.87l3.6,0a0.91,0.91 0 0 1 0.95,0.87l0,19.73zm0,-30.24a0.91,0.91 0 0 1 -0.95,0.87l-3.6,0a0.91,0.91 0 0 1 -0.95,-0.87l0,-19.73a0.91,0.91 0 0 1 0.95,-0.87l3.6,0a0.91,0.91 0 0 1 0.95,0.87l0,19.73zm11.7,90.71a0.9,0.9 0 0 1 -0.94,0.87l-3.61,0a0.91,0.91 0 0 1 -0.95,-0.87l0,-19.73a0.92,0.92 0 0 1 0.95,-0.87l3.61,0a0.91,0.91 0 0 1 0.94,0.87l0,19.73zm0,-30.23a0.91,0.91 0 0 1 -0.94,0.87l-3.61,0a0.92,0.92 0 0 1 -0.95,-0.87l0,-19.77a0.92,0.92 0 0 1 0.95,-0.87l3.61,0a0.91,0.91 0 0 1 0.94,0.87l0,19.77zm0,-30.24a0.91,0.91 0 0 1 -0.94,0.87l-3.61,0a0.92,0.92 0 0 1 -0.95,-0.87l0,-19.73a0.92,0.92 0 0 1 0.95,-0.87l3.61,0a0.91,0.91 0 0 1 0.94,0.87l0,19.73zm0,-30.24a0.91,0.91 0 0 1 -0.94,0.87l-3.61,0a0.92,0.92 0 0 1 -0.95,-0.87l0,-19.73a0.92,0.92 0 0 1 0.95,-0.87l3.61,0a0.91,0.91 0 0 1 0.94,0.87l0,19.73zm11.7,90.71a0.9,0.9 0 0 1 -0.94,0.87l-3.61,0a0.9,0.9 0 0 1 -0.94,-0.87l0,-19.73a0.91,0.91 0 0 1 0.94,-0.87l3.61,0a0.91,0.91 0 0 1 0.94,0.87l0,19.73zm0,-30.23a0.91,0.91 0 0 1 -0.94,0.87l-3.61,0a0.91,0.91 0 0 1 -0.94,-0.87l0,-19.77a0.91,0.91 0 0 1 0.94,-0.87l3.61,0a0.91,0.91 0 0 1 0.94,0.87l0,19.77zm0,-30.24a0.91,0.91 0 0 1 -0.94,0.87l-3.61,0a0.91,0.91 0 0 1 -0.94,-0.87l0,-19.73a0.91,0.91 0 0 1 0.94,-0.87l3.61,0a0.91,0.91 0 0 1 0.94,0.87l0,19.73zm0,-30.24a0.91,0.91 0 0 1 -0.94,0.87l-3.61,0a0.91,0.91 0 0 1 -0.94,-0.87l0,-19.73a0.91,0.91 0 0 1 0.94,-0.87l3.61,0a0.91,0.91 0 0 1 0.94,0.87l0,19.73zm11.7,90.71a0.9,0.9 0 0 1 -0.94,0.87l-3.61,0a0.9,0.9 0 0 1 -0.94,-0.87l0,-19.73a0.91,0.91 0 0 1 0.94,-0.87l3.61,0a0.91,0.91 0 0 1 0.94,0.87l0,19.73zm0,-30.23a0.91,0.91 0 0 1 -0.94,0.87l-3.61,0a0.91,0.91 0 0 1 -0.94,-0.87l0,-19.77a0.91,0.91 0 0 1 0.94,-0.87l3.61,0a0.91,0.91 0 0 1 0.94,0.87l0,19.77zm0,-30.24a0.91,0.91 0 0 1 -0.94,0.87l-3.61,0a0.91,0.91 0 0 1 -0.94,-0.87l0,-19.73a0.91,0.91 0 0 1 0.94,-0.87l3.61,0a0.91,0.91 0 0 1 0.94,0.87l0,19.73zm0,-30.24a0.91,0.91 0 0 1 -0.94,0.87l-3.61,0a0.91,0.91 0 0 1 -0.94,-0.87l0,-19.73a0.91,0.91 0 0 1 0.94,-0.87l3.61,0a0.91,0.91 0 0 1 0.94,0.87l0,19.73zm11.71,90.71a0.91,0.91 0 0 1 -0.95,0.87l-3.61,0a0.9,0.9 0 0 1 -0.94,-0.87l0,-19.73a0.91,0.91 0 0 1 0.94,-0.87l3.61,0a0.92,0.92 0 0 1 0.95,0.87l0,19.73zm0,-30.23a0.92,0.92 0 0 1 -0.95,0.87l-3.61,0a0.91,0.91 0 0 1 -0.94,-0.87l0,-19.77a0.91,0.91 0 0 1 0.94,-0.87l3.61,0a0.92,0.92 0 0 1 0.95,0.87l0,19.77zm0,-30.24a0.92,0.92 0 0 1 -0.95,0.87l-3.61,0a0.91,0.91 0 0 1 -0.94,-0.87l0,-19.73a0.91,0.91 0 0 1 0.94,-0.87l3.61,0a0.92,0.92 0 0 1 0.95,0.87l0,19.73zm0,-30.24a0.92,0.92 0 0 1 -0.95,0.87l-3.61,0a0.91,0.91 0 0 1 -0.94,-0.87l0,-19.73a0.91,0.91 0 0 1 0.94,-0.87l3.61,0a0.92,0.92 0 0 1 0.95,0.87l0,19.73z" class="cls-9"/>
    <path id="svg_10" fill="url(#color_line_26-9)" opacity="0.4" d="m232.1,62.61l-59.3,0a2.71,2.71 0 0 0 -2.8,2.59l0,143.24a2.71,2.71 0 0 0 2.8,2.56l59.3,0a2.71,2.71 0 0 0 2.82,-2.59l0,-143.21a2.71,2.71 0 0 0 -2.82,-2.59zm-48.63,103.76a1.16,1.16 0 0 1 -1.2,1.11l-5.4,0a1.16,1.16 0 0 1 -1.2,-1.11l0,-5.22a1.15,1.15 0 0 1 1.2,-1.1l5.4,0a1.15,1.15 0 0 1 1.2,1.1l0,5.22zm0,-12.88a1.15,1.15 0 0 1 -1.2,1.1l-5.4,0a1.15,1.15 0 0 1 -1.2,-1.1l0,-5.22a1.16,1.16 0 0 1 1.2,-1.11l5.4,0a1.16,1.16 0 0 1 1.2,1.11l0,5.22zm0,-12.89a1.16,1.16 0 0 1 -1.2,1.11l-5.4,0a1.16,1.16 0 0 1 -1.2,-1.11l0,-5.22a1.15,1.15 0 0 1 1.2,-1.1l5.4,0a1.15,1.15 0 0 1 1.2,1.1l0,5.22zm0,-12.88a1.15,1.15 0 0 1 -1.2,1.1l-5.4,0a1.15,1.15 0 0 1 -1.2,-1.1l0,-5.22a1.16,1.16 0 0 1 1.2,-1.11l5.4,0a1.16,1.16 0 0 1 1.2,1.11l0,5.22zm0,-12.89a1.16,1.16 0 0 1 -1.2,1.11l-5.4,0a1.16,1.16 0 0 1 -1.2,-1.11l0,-5.21a1.15,1.15 0 0 1 1.2,-1.11l5.4,0a1.15,1.15 0 0 1 1.2,1.11l0,5.21zm0,-12.88a1.15,1.15 0 0 1 -1.2,1.1l-5.4,0a1.15,1.15 0 0 1 -1.2,-1.1l0,-5.22a1.16,1.16 0 0 1 1.2,-1.11l5.4,0a1.16,1.16 0 0 1 1.2,1.11l0,5.22zm0,-12.89a1.16,1.16 0 0 1 -1.2,1.11l-5.4,0a1.16,1.16 0 0 1 -1.2,-1.11l0,-5.21a1.15,1.15 0 0 1 1.2,-1.11l5.4,0a1.15,1.15 0 0 1 1.2,1.11l0,5.21zm0,-12.88a1.15,1.15 0 0 1 -1.2,1.1l-5.4,0a1.15,1.15 0 0 1 -1.2,-1.1l0,-5.18a1.16,1.16 0 0 1 1.2,-1.11l5.4,0a1.16,1.16 0 0 1 1.2,1.11l0,5.18zm10.08,90.19a1.16,1.16 0 0 1 -1.2,1.11l-5.35,0a1.16,1.16 0 0 1 -1.21,-1.11l0,-5.22a1.16,1.16 0 0 1 1.21,-1.1l5.4,0a1.15,1.15 0 0 1 1.2,1.1l-0.05,5.22zm0,-12.88a1.15,1.15 0 0 1 -1.2,1.1l-5.35,0a1.16,1.16 0 0 1 -1.21,-1.1l0,-5.22a1.16,1.16 0 0 1 1.21,-1.11l5.4,0a1.16,1.16 0 0 1 1.2,1.11l-0.05,5.22zm0,-12.89a1.16,1.16 0 0 1 -1.2,1.11l-5.35,0a1.16,1.16 0 0 1 -1.21,-1.11l0,-5.22a1.16,1.16 0 0 1 1.21,-1.1l5.4,0a1.15,1.15 0 0 1 1.2,1.1l-0.05,5.22zm0,-12.88a1.15,1.15 0 0 1 -1.2,1.1l-5.35,0a1.16,1.16 0 0 1 -1.21,-1.1l0,-5.22a1.16,1.16 0 0 1 1.21,-1.11l5.4,0a1.16,1.16 0 0 1 1.2,1.11l-0.05,5.22zm0,-12.89a1.16,1.16 0 0 1 -1.2,1.11l-5.35,0a1.16,1.16 0 0 1 -1.21,-1.11l0,-5.21a1.16,1.16 0 0 1 1.21,-1.11l5.4,0a1.15,1.15 0 0 1 1.2,1.11l-0.05,5.21zm0,-12.88a1.15,1.15 0 0 1 -1.2,1.1l-5.35,0a1.16,1.16 0 0 1 -1.21,-1.1l0,-5.22a1.16,1.16 0 0 1 1.21,-1.11l5.4,0a1.16,1.16 0 0 1 1.2,1.11l-0.05,5.22zm0,-12.89a1.16,1.16 0 0 1 -1.2,1.11l-5.35,0a1.16,1.16 0 0 1 -1.21,-1.11l0,-5.21a1.16,1.16 0 0 1 1.21,-1.11l5.4,0a1.15,1.15 0 0 1 1.2,1.11l-0.05,5.21zm0,-12.88a1.15,1.15 0 0 1 -1.2,1.1l-5.35,0a1.16,1.16 0 0 1 -1.21,-1.1l0,-5.18a1.16,1.16 0 0 1 1.21,-1.15l5.4,0a1.16,1.16 0 0 1 1.2,1.11l-0.05,5.22zm10.08,90.19a1.16,1.16 0 0 1 -1.21,1.11l-5.42,0a1.16,1.16 0 0 1 -1.2,-1.11l0,-5.22a1.15,1.15 0 0 1 1.2,-1.1l5.4,0a1.16,1.16 0 0 1 1.21,1.1l0.02,5.22zm0,-12.88a1.16,1.16 0 0 1 -1.21,1.1l-5.42,0a1.15,1.15 0 0 1 -1.2,-1.1l0,-5.22a1.16,1.16 0 0 1 1.2,-1.11l5.4,0a1.16,1.16 0 0 1 1.21,1.11l0.02,5.22zm0,-12.89a1.16,1.16 0 0 1 -1.21,1.11l-5.42,0a1.16,1.16 0 0 1 -1.2,-1.11l0,-5.22a1.15,1.15 0 0 1 1.2,-1.1l5.4,0a1.16,1.16 0 0 1 1.21,1.1l0.02,5.22zm0,-12.88a1.16,1.16 0 0 1 -1.21,1.1l-5.42,0a1.15,1.15 0 0 1 -1.2,-1.1l0,-5.22a1.16,1.16 0 0 1 1.2,-1.11l5.4,0a1.16,1.16 0 0 1 1.21,1.11l0.02,5.22zm0,-12.89a1.16,1.16 0 0 1 -1.21,1.11l-5.42,0a1.16,1.16 0 0 1 -1.2,-1.11l0,-5.21a1.15,1.15 0 0 1 1.2,-1.11l5.4,0a1.16,1.16 0 0 1 1.21,1.11l0.02,5.21zm0,-12.88a1.16,1.16 0 0 1 -1.21,1.1l-5.42,0a1.15,1.15 0 0 1 -1.2,-1.1l0,-5.22a1.16,1.16 0 0 1 1.2,-1.11l5.4,0a1.16,1.16 0 0 1 1.21,1.11l0.02,5.22zm0,-12.89a1.16,1.16 0 0 1 -1.21,1.11l-5.42,0a1.16,1.16 0 0 1 -1.2,-1.11l0,-5.21a1.15,1.15 0 0 1 1.2,-1.11l5.4,0a1.16,1.16 0 0 1 1.21,1.11l0.02,5.21zm0,-12.88a1.16,1.16 0 0 1 -1.21,1.1l-5.42,0a1.15,1.15 0 0 1 -1.2,-1.1l0,-5.18a1.16,1.16 0 0 1 1.2,-1.11l5.4,0a1.16,1.16 0 0 1 1.23,1.11l0,5.18zm25.21,90.19a1.16,1.16 0 0 1 -1.2,1.11l-20.54,0a1.16,1.16 0 0 1 -1.2,-1.11l0,-5.22a1.15,1.15 0 0 1 1.2,-1.1l20.54,0a1.15,1.15 0 0 1 1.2,1.1l0,5.22zm0,-12.88a1.15,1.15 0 0 1 -1.2,1.1l-20.54,0a1.15,1.15 0 0 1 -1.2,-1.1l0,-5.22a1.16,1.16 0 0 1 1.2,-1.11l20.54,0a1.16,1.16 0 0 1 1.2,1.11l0,5.22zm0,-12.89a1.16,1.16 0 0 1 -1.2,1.11l-20.54,0a1.16,1.16 0 0 1 -1.2,-1.11l0,-5.22a1.15,1.15 0 0 1 1.2,-1.1l20.54,0a1.15,1.15 0 0 1 1.2,1.1l0,5.22zm0,-12.88a1.15,1.15 0 0 1 -1.2,1.1l-20.54,0a1.15,1.15 0 0 1 -1.2,-1.1l0,-5.22a1.16,1.16 0 0 1 1.2,-1.11l20.54,0a1.16,1.16 0 0 1 1.2,1.11l0,5.22zm0,-12.89a1.16,1.16 0 0 1 -1.2,1.11l-20.54,0a1.16,1.16 0 0 1 -1.2,-1.11l0,-5.21a1.15,1.15 0 0 1 1.2,-1.11l20.54,0a1.15,1.15 0 0 1 1.2,1.11l0,5.21zm0,-12.88a1.15,1.15 0 0 1 -1.2,1.1l-20.54,0a1.15,1.15 0 0 1 -1.2,-1.1l0,-5.22a1.16,1.16 0 0 1 1.2,-1.11l20.54,0a1.16,1.16 0 0 1 1.2,1.11l0,5.22zm0,-12.89a1.16,1.16 0 0 1 -1.2,1.11l-20.54,0a1.16,1.16 0 0 1 -1.2,-1.11l0,-5.21a1.15,1.15 0 0 1 1.2,-1.11l20.54,0a1.15,1.15 0 0 1 1.2,1.11l0,5.21zm0,-12.88a1.15,1.15 0 0 1 -1.2,1.1l-20.54,0a1.15,1.15 0 0 1 -1.2,-1.1l0,-5.18a1.16,1.16 0 0 1 1.2,-1.11l20.54,0a1.16,1.16 0 0 1 1.2,1.11l0,5.18z" class="cls-10"/>
    <path id="svg_11" fill="url(#color_line_26-10)" opacity="0.4" d="m162.13,33.68l-76.3,0a2.71,2.71 0 0 0 -2.83,2.59l0,172.17a2.71,2.71 0 0 0 2.83,2.56l76.3,0a2.71,2.71 0 0 0 2.82,-2.59l0,-172.14a2.71,2.71 0 0 0 -2.82,-2.59zm-6.79,134.32a1.16,1.16 0 0 1 -1.2,1.11l-60.31,0a1.16,1.16 0 0 1 -1.21,-1.11l0,-5.21a1.16,1.16 0 0 1 1.21,-1.11l60.31,0a1.15,1.15 0 0 1 1.2,1.11l0,5.21zm0,-14.67a1.15,1.15 0 0 1 -1.2,1.1l-60.31,0a1.16,1.16 0 0 1 -1.21,-1.1l0,-5.22a1.16,1.16 0 0 1 1.21,-1.11l60.31,0a1.16,1.16 0 0 1 1.2,1.11l0,5.22zm0,-14.68a1.16,1.16 0 0 1 -1.2,1.11l-60.31,0a1.16,1.16 0 0 1 -1.21,-1.11l0,-5.22a1.16,1.16 0 0 1 1.21,-1.1l60.31,0a1.15,1.15 0 0 1 1.2,1.1l0,5.22zm0,-14.68a1.16,1.16 0 0 1 -1.2,1.11l-60.31,0a1.16,1.16 0 0 1 -1.21,-1.11l0,-5.21a1.16,1.16 0 0 1 1.21,-1.11l60.31,0a1.15,1.15 0 0 1 1.2,1.11l0,5.21zm0,-14.67a1.15,1.15 0 0 1 -1.2,1.1l-60.31,0a1.16,1.16 0 0 1 -1.21,-1.1l0,-5.3a1.16,1.16 0 0 1 1.21,-1.11l60.31,0a1.16,1.16 0 0 1 1.2,1.11l0,5.3zm0,-14.68a1.16,1.16 0 0 1 -1.2,1.11l-60.31,0a1.16,1.16 0 0 1 -1.21,-1.11l0,-5.27a1.16,1.16 0 0 1 1.21,-1.1l60.31,0a1.15,1.15 0 0 1 1.2,1.1l0,5.27zm0,-14.68a1.16,1.16 0 0 1 -1.2,1.11l-60.31,0a1.16,1.16 0 0 1 -1.21,-1.11l0,-5.26a1.16,1.16 0 0 1 1.21,-1.11l60.31,0a1.15,1.15 0 0 1 1.2,1.11l0,5.26zm0,-14.67a1.15,1.15 0 0 1 -1.2,1.1l-60.31,0a1.16,1.16 0 0 1 -1.21,-1.1l0,-5.27a1.16,1.16 0 0 1 1.21,-1.11l60.31,0a1.16,1.16 0 0 1 1.2,1.11l0,5.27zm0,-14.68a1.16,1.16 0 0 1 -1.2,1.11l-60.31,0a1.16,1.16 0 0 1 -1.21,-1.11l0,-5.27a1.16,1.16 0 0 1 1.21,-1.1l60.31,0a1.15,1.15 0 0 1 1.2,1.1l0,5.27z" class="cls-11"/>
    <path id="svg_12" fill="url(#color_line_26-11)" opacity="0.4" d="m307.21,7l-65.39,0a2.51,2.51 0 0 0 -2.42,2.59l0,204.35a2.51,2.51 0 0 0 2.42,2.6l65.39,0a2.51,2.51 0 0 0 2.41,-2.6l0,-204.35a2.51,2.51 0 0 0 -2.41,-2.59zm-5.82,134.28a1.06,1.06 0 0 1 -1,1.1l-51.72,0a1.06,1.06 0 0 1 -1,-1.1l0,-5.22a1.07,1.07 0 0 1 1,-1.11l51.69,0a1.07,1.07 0 0 1 1,1.11l0.03,5.22zm0,-14.68a1.07,1.07 0 0 1 -1,1.11l-51.72,0a1.07,1.07 0 0 1 -1,-1.11l0,-5.22a1.06,1.06 0 0 1 1,-1.1l51.69,0a1.06,1.06 0 0 1 1,1.1l0.03,5.22zm0,-14.68a1.07,1.07 0 0 1 -1,1.11l-51.72,0a1.07,1.07 0 0 1 -1,-1.11l0,-5.21a1.07,1.07 0 0 1 1,-1.11l51.69,0a1.07,1.07 0 0 1 1,1.11l0.03,5.21zm0,-14.67a1.06,1.06 0 0 1 -1,1.1l-51.72,0a1.06,1.06 0 0 1 -1,-1.1l0,-5.25a1.07,1.07 0 0 1 1,-1.11l51.69,0a1.07,1.07 0 0 1 1,1.11l0.03,5.25zm0,-14.68a1.07,1.07 0 0 1 -1,1.11l-51.72,0a1.07,1.07 0 0 1 -1,-1.11l0,-5.22a1.06,1.06 0 0 1 1,-1.1l51.69,0a1.06,1.06 0 0 1 1,1.1l0.03,5.22zm0,-14.68a1.07,1.07 0 0 1 -1,1.11l-51.72,0a1.07,1.07 0 0 1 -1,-1.11l0,-5.21a1.07,1.07 0 0 1 1,-1.11l51.69,0a1.07,1.07 0 0 1 1,1.11l0.03,5.21zm0,-14.67a1.06,1.06 0 0 1 -1,1.1l-51.72,0a1.06,1.06 0 0 1 -1,-1.1l0,-5.22a1.07,1.07 0 0 1 1,-1.11l51.69,0a1.07,1.07 0 0 1 1,1.11l0.03,5.22zm0,-14.68a1.07,1.07 0 0 1 -1,1.11l-51.72,0a1.07,1.07 0 0 1 -1,-1.11l0,-5.22a1.06,1.06 0 0 1 1,-1.1l51.69,0a1.06,1.06 0 0 1 1,1.1l0.03,5.22zm0,-14.68a1.07,1.07 0 0 1 -1,1.11l-51.72,0a1.07,1.07 0 0 1 -1,-1.11l0,-5.21a1.07,1.07 0 0 1 1,-1.11l51.69,0a1.07,1.07 0 0 1 1,1.11l0.03,5.21z" class="cls-12"/>
   </g>
  </g>
  <g transform="rotate(-12 333.085 213.426)" id="svg_58">
   <polygon id="svg_22" fill="#57b3f5" points="339.3399963378906,228.0500030517578 339.3399963378906,228.0399932861328 340.7200012207031,228.82000732421875 340.7200012207031,228.8300018310547 327.71002197265625,243.99000549316406 327.6399841308594,241.6699981689453 327.7699890136719,241.52000427246094 339.3399963378906,228.0500030517578 " class="cls-15"/>
   <polygon id="svg_23" fill="#4899e3" points="337.3999938964844,226.9499969482422 339.3399963378906,228.0399932861328 339.3399963378906,228.0500030517578 327.7699890136719,241.52000427246094 326.010009765625,240.14999389648438 337.3999938964844,226.9499969482422 " class="cls-17"/>
   <polygon id="svg_24" fill="#4888e3" points="336.010009765625,226.1699981689453 337.3999938964844,226.9499969482422 326.010009765625,240.14999389648438 325.94000244140625,237.8300018310547 336.010009765625,226.1699981689453 " class="cls-18"/>
   <polygon id="svg_25" fill="#57b3f5" points="313.6399841308594,212.77999877929688 301.54998779296875,225.8300018310547 300.3999938964844,224.10000610351562 312.3900146484375,211.0399932861328 313.6399841308594,212.77999877929688 " class="cls-15"/>
   <polygon id="svg_26" fill="#69bff5" points="314.55999755859375,214.07000732421875 300.9900207519531,228.8300018310547 300.91998291015625,226.50999450683594 301.54998779296875,225.8300018310547 313.6399841308594,212.77999877929688 314.55999755859375,214.05999755859375 314.55999755859375,214.07000732421875 " class="cls-14"/>
   <polygon id="svg_27" fill="#69bff5" points="317.97998046875,210.16000366210938 314.57000732421875,214.0800018310547 314.55999755859375,214.07000732421875 314.55999755859375,214.05999755859375 313.6399841308594,212.77999877929688 312.3900146484375,211.0399932861328 315.83001708984375,207.02000427246094 317.97998046875,210.16000366210938 " class="cls-14"/>
   <polygon id="svg_28" fill="#7dccf5" points="366.510009765625,189.3300018310547 372.25,198.19000244140625 368.04998779296875,195.8300018310547 364.0799865722656,190.27999877929688 366.510009765625,189.3300018310547 " class="cls-13"/>
   <polygon id="svg_29" fill="#57b3f5" points="364.0799865722656,190.27999877929688 368.04998779296875,195.8300018310547 347.95001220703125,219 362.3399963378906,190.9600067138672 364.0799865722656,190.27999877929688 " class="cls-15"/>
   <polygon id="svg_30" fill="#57b3f5" points="315.83001708984375,207.02000427246094 319.9700012207031,207.61000061035156 343.2799987792969,217.55999755859375 347.95001220703125,219 343.4100036621094,224.24000549316406 317.97998046875,210.16000366210938 315.83001708984375,207.02000427246094 " class="cls-15"/>
   <polygon id="svg_31" fill="#8cd7ff" points="372.25,198.19000244140625 344.02001953125,230.67999267578125 340.7200012207031,228.82000732421875 339.3399963378906,228.0399932861328 337.3999938964844,226.9499969482422 336.010009765625,226.1699981689453 317.8399963378906,215.92999267578125 314.57000732421875,214.0800018310547 317.97998046875,210.16000366210938 343.4100036621094,224.24000549316406 347.95001220703125,219 368.04998779296875,195.8300018310547 372.25,198.19000244140625 " class="cls-16"/>
   <polygon id="svg_32" fill="#8cd7ff" points="314.57000732421875,214.0800018310547 317.8399963378906,215.92999267578125 304.1099853515625,231.25999450683594 300.9900207519531,228.8300018310547 314.55999755859375,214.07000732421875 314.57000732421875,214.0800018310547 " class="cls-16"/>
   <polygon id="svg_33" fill="#8cd7ff" points="344.02001953125,230.67999267578125 330.83001708984375,246.4199981689453 327.71002197265625,243.99000549316406 340.7200012207031,228.8300018310547 340.7200012207031,228.82000732421875 344.02001953125,230.67999267578125 " class="cls-16"/>
   <path id="svg_34" fill="#ebfcff" d="m293.92,189.8c0.14,-0.42 0.87,-0.52 1.23,-0.31c-0.22,-0.08 -0.37,0.1 -0.32,0.41a18.89,18.89 0 0 0 2.57,8.21c0.26,0.72 0.42,2.62 0.72,3.6a1.28,1.28 0 0 0 1.17,1.07a1.28,1.28 0 0 1 -1.66,0.41c-0.73,-0.32 -1.24,-2.83 -1.35,-3.31s-1.24,-5.35 -1.58,-6a13.51,13.51 0 0 1 -0.78,-4.08z" class="cls-19"/>
   <path id="svg_35" fill="#e49056" d="m301.27,201.87a11.25,11.25 0 0 1 -1.73,0.89l-0.25,0a1.28,1.28 0 0 1 -1.17,-1.07c-0.3,-1 -0.46,-2.88 -0.72,-3.6a18.89,18.89 0 0 1 -2.57,-8.21c-0.05,-0.31 0.1,-0.49 0.32,-0.41a21.68,21.68 0 0 1 2.71,3.15a9.11,9.11 0 0 0 3.8,3.88a1.67,1.67 0 0 1 0.14,0.53c0.07,0.63 -0.18,1.21 -0.54,1.26s-0.93,-0.19 -0.87,0.48a2,2 0 0 0 1,1.57c0.44,0.17 0.76,0.12 0.76,0.64a3.28,3.28 0 0 0 0,0.34c0,0.27 0.08,0.41 0,0.51s-0.54,-0.15 -0.88,0.04z" class="cls-20"/>
   <path id="svg_36" stroke-width="0.09px" stroke="#4986d9" stroke-miterlimit="10" fill="none" d="m295.15,189.49c-0.36,-0.21 -1.09,-0.11 -1.23,0.31a13.51,13.51 0 0 0 0.78,4c0.34,0.68 1.48,5.55 1.58,6s0.62,3 1.35,3.31a1.28,1.28 0 0 0 1.66,-0.41l0,0" class="cls-21"/>
   <path id="svg_37" fill="#a4e5ff" d="m359,190.06a0.56,0.56 0 0 0 0.08,0.54a1.72,1.72 0 0 1 -0.61,-0.13l0.53,-0.41z" class="cls-22"/>
   <path id="svg_38" d="m360.72,187.15c0.83,-2.68 -0.21,-5.38 -2.33,-6a4.15,4.15 0 0 0 -4.53,2a1.78,1.78 0 0 1 -0.78,-1.71c0.08,0.57 1,1.11 1.43,0.43a2.71,2.71 0 0 1 0.87,-0.68c1.11,-0.59 3,-1 4.28,0.11a5.06,5.06 0 0 1 1.49,2.27a6.1,6.1 0 0 1 0.11,3.45a1.8,1.8 0 0 1 -0.18,0.65a6.73,6.73 0 0 1 -1.56,1.71a6.18,6.18 0 0 0 1.2,-2.23z"/>
   <path id="svg_39" fill="#257fba" d="m339.52,208.84c0,0.23 0,0.46 0.08,0.68l0,0l-1.69,1l-16.33,-9a3.33,3.33 0 0 0 -1,-0.33l-15.58,-2.4l19.33,-1.38a2.59,2.59 0 0 1 1.85,0.59l13.38,10.84l-0.04,0z" class="cls-23"/>
   <path id="svg_40" fill="#398eed" d="m343.27,217.56l-3.69,2.24a3.64,3.64 0 0 1 -4.11,-0.23l-15.51,-12l-18.42,-2.57l0.39,-2.11l0.72,-3.9l0.1,-0.52l2.2,0.34l0,0l15.65,2.4a3.33,3.33 0 0 1 1,0.33l16.33,9l1.69,-1l0,0a13.71,13.71 0 0 0 3.65,8.02z" class="cls-24"/>
   <path id="svg_41" fill="#ffb056" d="m351.69,185l0,0a2.9,2.9 0 0 1 1.36,-0.26a5.06,5.06 0 0 0 1.31,5.51a4.22,4.22 0 0 1 0,1.34c-0.45,0 -1.47,0 -1.22,1.35s3,1 3.53,0a2.49,2.49 0 0 1 0.91,-1.85l0.81,-0.62a1.72,1.72 0 0 0 0.61,0.13a0.56,0.56 0 0 1 -0.08,-0.54l2.46,-1.9a15.75,15.75 0 0 1 2.2,4a8.34,8.34 0 0 1 0.83,4.4a17,17 0 0 0 -7.27,6.42c-2.09,3.48 -7.29,14 -8.05,15.85c-1.56,0.18 -3.29,0.42 -3.29,0.42a7.42,7.42 0 0 1 -2.57,-1.72a13.71,13.71 0 0 1 -3.67,-8c0,-0.22 -0.06,-0.45 -0.08,-0.68s0,-0.28 0,-0.41c-0.2,-2.18 0.87,-1.09 1.56,-1.39s8.25,-12.5 8.61,-13.49a16.58,16.58 0 0 0 0.34,-7.44a4.11,4.11 0 0 1 1.7,-1.12z" class="cls-25"/>
   <path id="svg_42" fill="#fae6d2" d="m353.08,181.4a1.78,1.78 0 0 0 0.78,1.71a6.3,6.3 0 0 0 -0.8,1.67a2.9,2.9 0 0 0 -1.36,0.26c0.23,-1 0.12,-3 1,-3.77s2.67,-0.12 2.67,-0.12a2.71,2.71 0 0 0 -0.87,0.68c-0.44,0.68 -1.34,0.17 -1.42,-0.43z" class="cls-26"/>
   <path id="svg_43" fill="#ffeed2" d="m361.68,188l0,0l-0.6,-0.32a1.8,1.8 0 0 0 0.18,-0.65a6.1,6.1 0 0 0 -0.11,-3.45l6.33,2.76a1.08,1.08 0 0 1 0.32,1.76l-4.18,4.14a15.75,15.75 0 0 0 -2.2,-4l0.26,-0.24z" class="cls-27"/>
   <path id="svg_44" fill="#ffeed2" d="m355.39,190.82a3.52,3.52 0 0 0 2.88,-0.42l0.16,0.07l-0.81,0.62a2.49,2.49 0 0 0 -0.91,1.85c-0.56,1 -3.27,1.43 -3.53,0s0.77,-1.31 1.22,-1.35a4.22,4.22 0 0 0 0,-1.34a3.3,3.3 0 0 0 0.99,0.57z" class="cls-27"/>
   <path id="svg_45" fill="#ffeed2" d="m357.64,183.61a3.81,3.81 0 0 1 0.23,4.74c-0.89,1.12 -0.23,1.76 0.4,2.05a3.52,3.52 0 0 1 -2.88,0.42a3.3,3.3 0 0 1 -1,-0.53a5.06,5.06 0 0 1 -1.31,-5.51a6.3,6.3 0 0 1 0.8,-1.67a0.62,0.62 0 0 0 0.23,0.07c0.73,0.09 2.74,-0.35 3.53,0.43z" class="cls-27"/>
   <polygon id="svg_46" fill="#ffeed2" points="302.6499938964844,198.97000122070312 301.92999267578125,202.8699951171875 300.1600036621094,202.16000366210938 300.54998779296875,198.39999389648438 302.6499938964844,198.97000122070312 " class="cls-27"/>
   <path id="svg_47" stroke-width="0.23px" stroke="#000" stroke-miterlimit="10" fill="none" d="m359.51,189.36c-0.11,0.13 -0.24,0.25 -0.36,0.37" class="cls-28"/>
   <path id="svg_48" d="m361.27,183.49a5.25,5.25 0 0 0 -1.53,-2.31a3.91,3.91 0 0 0 -4.41,-0.13l0,0a2.86,2.86 0 0 0 -0.92,0.71a0.52,0.52 0 0 1 -0.59,0.25a0.8,0.8 0 0 1 -0.62,-0.62l-0.11,-0.77l-0.13,0.77a1.93,1.93 0 0 0 0.85,1.83a0.77,0.77 0 0 0 0.27,0.08a7.1,7.1 0 0 0 0.91,0c0.86,0 2,-0.12 2.57,0.41a3.72,3.72 0 0 1 0.22,4.58a1.58,1.58 0 0 0 -0.43,1.32a1.45,1.45 0 0 0 0.88,0.91a0.15,0.15 0 0 0 0.11,0l0,0l0.06,0a2.56,2.56 0 0 1 0.25,-0.16a0.78,0.78 0 0 0 0.35,-0.36s0,0 0.07,-0.08a0.79,0.79 0 0 0 0.14,-0.13a2.79,2.79 0 0 1 0.35,-0.37l0.31,-0.29a4.94,4.94 0 0 0 1.27,-1.46a1.9,1.9 0 0 0 0.2,-0.67a6.3,6.3 0 0 0 -0.07,-3.51z"/>
   <path id="svg_49" opacity="0.2" stroke="#e55c5c" stroke-width="0.23px" stroke-miterlimit="10" fill="none" d="m354.4,191.63c-0.05,0.28 -0.16,0.49 -0.35,0.51" class="cls-29"/>
   <path id="svg_50" opacity="0.2" stroke="#e55c5c" stroke-width="0.23px" stroke-miterlimit="10" fill="none" d="m361.42,188.16l0.26,-0.21l1.58,-1.22" class="cls-29"/>
   <ellipse transform="rotate(-74.08 123.85 385)" id="svg_51" fill="#ffeed2" ry="0.8" rx="1.17" cy="556.35" cx="378.24" class="cls-27"/>
   <ellipse id="svg_52" fill="#e55c5c" opacity="0.2" transform="matrix(0.27 -0.96 0.96 0.27 19.85 369)" ry="0.47" rx="0.68" cy="276.08604" cx="267.18035" class="cls-30"/>
   <path id="svg_53" fill="#ebfcff" d="m300.56,188.35c0.34,-0.28 1,0 1.2,0.41c-0.14,-0.19 -0.37,-0.12 -0.49,0.16a19,19 0 0 0 -2.25,8.31c-0.17,0.75 -1.05,2.43 -1.34,3.42a1.28,1.28 0 0 0 0.42,1.53a1.27,1.27 0 0 1 -1.62,-0.54c-0.45,-0.67 0.47,-3.07 0.64,-3.52s1.83,-5.18 1.91,-5.94a13.54,13.54 0 0 1 1.53,-3.83z" class="cls-19"/>
   <path id="svg_54" fill="#ffb056" d="m300.25,202.48a10.84,10.84 0 0 1 -1.93,-0.18a1.19,1.19 0 0 1 -0.22,-0.12a1.28,1.28 0 0 1 -0.42,-1.53c0.29,-1 1.17,-2.67 1.34,-3.42a19,19 0 0 1 2.25,-8.31c0.12,-0.28 0.35,-0.35 0.49,-0.16a21,21 0 0 1 0.59,4.1a9.09,9.09 0 0 0 1.12,5.32a1.83,1.83 0 0 1 -0.17,0.53c-0.28,0.56 -0.81,0.92 -1.13,0.76s-0.68,-0.66 -1,-0.06a2.05,2.05 0 0 0 0,1.86c0.28,0.38 0.57,0.51 0.3,0.95a2.25,2.25 0 0 0 -0.16,0.3c-0.13,0.25 -0.16,0.38 -0.33,0.4s-0.34,-0.42 -0.73,-0.44z" class="cls-25"/>
   <path id="svg_55" stroke-width="0.09px" stroke="#4986d9" stroke-miterlimit="10" fill="none" d="m301.76,188.76c-0.19,-0.38 -0.86,-0.69 -1.2,-0.41a13.54,13.54 0 0 0 -1.53,3.83c-0.08,0.76 -1.74,5.48 -1.91,5.94s-1.09,2.85 -0.64,3.52a1.27,1.27 0 0 0 1.62,0.54l0,0" class="cls-21"/>
  </g>
  <g transform="rotate(-180 196.395 199.245)" opacity="0.88" id="svg_56">
   <polygon id="svg_13" fill="#7dccf5" points="137.75,247.66000366210938 175.89999389648438,224.32000732421875 223.51998901367188,224.76998901367188 223.29000854492188,248.47000122070312 137.75,247.66000366210938 " class="cls-13"/>
   <polygon id="svg_14" fill="#69bff5" points="223.29000854492188,248.47000122070312 223.51998901367188,224.76998901367188 261.44000244140625,225.13999938964844 223.29000854492188,248.47000122070312 " class="cls-14"/>
   <polygon id="svg_15" fill="#57b3f5" points="261.44000244140625,225.13999938964844 268.75,198.07000732421875 286.5799865722656,187.16000366210938 261.44000244140625,225.13999938964844 " class="cls-15"/>
   <polygon id="svg_16" fill="#8cd7ff" points="106.21000671386719,216.97000122070312 138.22000122070312,197.3699951171875 144.35000610351562,193.62998962402344 175.77999877929688,224.20999145507812 175.77999877929688,224.32000732421875 137.75,247.66000366210938 106.21000671386719,216.97000122070312 " class="cls-16"/>
   <polygon id="svg_17" fill="#8cd7ff" points="268.75,198.07000732421875 261.44000244140625,225.13999938964844 223.51998901367188,224.76998901367188 175.89999389648438,224.32000732421875 184.4499969482422,192.58999633789062 261.739990234375,193.3300018310547 270,193.41000366210938 268.75,198.07000732421875 " class="cls-16"/>
   <polygon id="svg_18" fill="#69bff5" points="138.22000122070312,197.3699951171875 138.4600067138672,173.36000061035156 176.49000549316406,150.02000427246094 175.77999877929688,224.20999145507812 144.35000610351562,193.62998962402344 138.22000122070312,197.3699951171875 " class="cls-14"/>
   <polygon id="svg_19" fill="#7dccf5" points="175.77999877929688,224.20999145507812 176.49000549316406,150.02000427246094 176.61000061035156,150.02000427246094 262.1499938964844,150.83999633789062 261.739990234375,193.3300018310547 184.4499969482422,192.58999633789062 175.89999389648438,224.32000732421875 175.77999877929688,224.20999145507812 " class="cls-13"/>
   <polygon id="svg_20" fill="#69bff5" points="261.7799987792969,189.30999755859375 182.7899932861328,189.30999755859375 175.89999389648438,224.32000732421875 184.4499969482422,192.58999633789062 261.739990234375,193.3300018310547 261.7799987792969,189.30999755859375 " class="cls-14"/>
   <polygon id="svg_21" fill="#57b3f5" points="175.89999389648438,224.32000732421875 151.02999877929688,192.58999633789062 146.1300048828125,195.36000061035156 175.89999389648438,224.32000732421875 " class="cls-15"/>
  </g>
 </g>
</svg>