<svg xmlns="http://www.w3.org/2000/svg" xmlns:xlink="http://www.w3.org/1999/xlink" viewBox="0 0 456.01 262.12"><defs><style>.cls-1,.cls-2,.cls-24,.cls-3,.cls-4,.cls-5,.cls-6{fill:none;stroke-miterlimit:10;}.cls-1,.cls-2,.cls-3,.cls-4,.cls-5,.cls-6{stroke-width:2px;}.cls-1{stroke:url(#kodcloud);}.cls-2{stroke:url(#kodcloud-2);}.cls-3{stroke:url(#kodcloud-3);}.cls-4{stroke:url(#kodcloud-4);}.cls-5{stroke:url(#kodcloud-5);}.cls-6{stroke:url(#kodcloud-6);}.cls-10,.cls-11,.cls-12,.cls-7,.cls-9{opacity:0.4;}.cls-7{fill:url(#kodcloud-7);}.cls-8{opacity:0.7;}.cls-9{fill:url(#kodcloud-8);}.cls-10{fill:url(#kodcloud-9);}.cls-11{fill:url(#kodcloud-10);}.cls-12{fill:url(#kodcloud-11);}.cls-13{fill:#53b9f5;}.cls-14{fill:#9dd7ff;}.cls-15{fill:#40a8f5;}.cls-16{fill:#8cd7ff;}.cls-17{fill:#ebfcff;}.cls-18{fill:#ffb056;}.cls-19{fill:#398eed;}.cls-20{fill:#ffeed2;}.cls-21{fill:#e55c5c;opacity:0.2;}.cls-22{fill:#fae4cd;}.cls-23{fill:#395ee5;}.cls-24{stroke:#4986d9;stroke-width:0.12px;}.cls-25{fill:#fff;}</style><linearGradient id="kodcloud" x1="1" y1="91.35" x2="1" y2="181.12" gradientUnits="userSpaceOnUse"><stop offset="0" stop-color="#81cfff"/><stop offset="1" stop-color="#5ecfff" stop-opacity="0"/></linearGradient><linearGradient id="kodcloud-2" x1="455.01" y1="72.11" x2="455.01" y2="161.88" xlink:href="#kodcloud"/><linearGradient id="kodcloud-3" x1="40.9" y1="143.88" x2="40.9" y2="199.51" xlink:href="#kodcloud"/><linearGradient id="kodcloud-4" x1="64.97" y1="95.36" x2="64.97" y2="123.17" xlink:href="#kodcloud"/><linearGradient id="kodcloud-5" x1="397.23" y1="104.2" x2="397.23" y2="132.02" xlink:href="#kodcloud"/><linearGradient id="kodcloud-6" x1="424.75" y1="133.49" x2="424.75" y2="189.13" xlink:href="#kodcloud"/><linearGradient id="kodcloud-7" x1="232.75" y1="224.43" x2="232.75" y2="262.12" xlink:href="#kodcloud"/><linearGradient id="kodcloud-8" x1="349.36" y1="26.68" x2="349.36" y2="204.03" xlink:href="#kodcloud"/><linearGradient id="kodcloud-9" x1="201.45" y1="55.61" x2="201.45" y2="204.03" xlink:href="#kodcloud"/><linearGradient id="kodcloud-10" x1="122.98" y1="26.68" x2="122.98" y2="204.03" xlink:href="#kodcloud"/><linearGradient id="kodcloud-11" x1="273.51" y1="0" x2="273.51" y2="209.54" xlink:href="#kodcloud"/></defs><title>暂无通知</title><g id="layer_2" data-name="layer 2"><g id="layer_1-2" data-name="layer 1"><line class="cls-1" x1="1" y1="91.35" x2="1" y2="181.12"/><line class="cls-2" x1="455.01" y1="72.11" x2="455.01" y2="161.88"/><line class="cls-3" x1="40.9" y1="143.88" x2="40.9" y2="199.51"/><line class="cls-4" x1="64.97" y1="95.36" x2="64.97" y2="123.17"/><line class="cls-5" x1="397.23" y1="104.2" x2="397.23" y2="132.02"/><line class="cls-6" x1="424.75" y1="133.49" x2="424.75" y2="189.13"/><path class="cls-7" d="M412.28,262.12c-23-23-61-37.69-179.53-37.69S76.24,239.1,53.21,262.12Z"/><g class="cls-8"><path class="cls-9" d="M380.66,26.68H318.07a2.71,2.71,0,0,0-2.82,2.59V201.44a2.71,2.71,0,0,0,2.82,2.59h62.59a2.72,2.72,0,0,0,2.82-2.59V29.27A2.72,2.72,0,0,0,380.66,26.68ZM328.3,147a.9.9,0,0,1-.95.87h-3.6a.9.9,0,0,1-.95-.87V127.27a.91.91,0,0,1,.95-.87h3.6a.91.91,0,0,1,.95.87Zm0-30.23a.91.91,0,0,1-.95.87h-3.6a.91.91,0,0,1-.95-.87V97a.91.91,0,0,1,.95-.87h3.6a.91.91,0,0,1,.95.87Zm0-30.24a.91.91,0,0,1-.95.87h-3.6a.91.91,0,0,1-.95-.87V66.8a.91.91,0,0,1,.95-.87h3.6a.91.91,0,0,1,.95.87Zm0-30.24a.91.91,0,0,1-.95.87h-3.6a.91.91,0,0,1-.95-.87V36.56a.91.91,0,0,1,.95-.87h3.6a.91.91,0,0,1,.95.87ZM340,147a.9.9,0,0,1-.94.87h-3.61a.91.91,0,0,1-.95-.87V127.27a.92.92,0,0,1,.95-.87h3.61a.91.91,0,0,1,.94.87Zm0-30.23a.91.91,0,0,1-.94.87h-3.61a.92.92,0,0,1-.95-.87V97a.92.92,0,0,1,.95-.87h3.61A.91.91,0,0,1,340,97Zm0-30.24a.91.91,0,0,1-.94.87h-3.61a.92.92,0,0,1-.95-.87V66.8a.92.92,0,0,1,.95-.87h3.61a.91.91,0,0,1,.94.87Zm0-30.24a.91.91,0,0,1-.94.87h-3.61a.92.92,0,0,1-.95-.87V36.56a.92.92,0,0,1,.95-.87h3.61a.91.91,0,0,1,.94.87ZM351.7,147a.9.9,0,0,1-.94.87h-3.61a.9.9,0,0,1-.94-.87V127.27a.91.91,0,0,1,.94-.87h3.61a.91.91,0,0,1,.94.87Zm0-30.23a.91.91,0,0,1-.94.87h-3.61a.91.91,0,0,1-.94-.87V97a.91.91,0,0,1,.94-.87h3.61a.91.91,0,0,1,.94.87Zm0-30.24a.91.91,0,0,1-.94.87h-3.61a.91.91,0,0,1-.94-.87V66.8a.91.91,0,0,1,.94-.87h3.61a.91.91,0,0,1,.94.87Zm0-30.24a.91.91,0,0,1-.94.87h-3.61a.91.91,0,0,1-.94-.87V36.56a.91.91,0,0,1,.94-.87h3.61a.91.91,0,0,1,.94.87ZM363.4,147a.9.9,0,0,1-.94.87h-3.61a.9.9,0,0,1-.94-.87V127.27a.91.91,0,0,1,.94-.87h3.61a.91.91,0,0,1,.94.87Zm0-30.23a.91.91,0,0,1-.94.87h-3.61a.91.91,0,0,1-.94-.87V97a.91.91,0,0,1,.94-.87h3.61a.91.91,0,0,1,.94.87Zm0-30.24a.91.91,0,0,1-.94.87h-3.61a.91.91,0,0,1-.94-.87V66.8a.91.91,0,0,1,.94-.87h3.61a.91.91,0,0,1,.94.87Zm0-30.24a.91.91,0,0,1-.94.87h-3.61a.91.91,0,0,1-.94-.87V36.56a.91.91,0,0,1,.94-.87h3.61a.91.91,0,0,1,.94.87ZM375.11,147a.91.91,0,0,1-.95.87h-3.61a.9.9,0,0,1-.94-.87V127.27a.91.91,0,0,1,.94-.87h3.61a.92.92,0,0,1,.95.87Zm0-30.23a.92.92,0,0,1-.95.87h-3.61a.91.91,0,0,1-.94-.87V97a.91.91,0,0,1,.94-.87h3.61a.92.92,0,0,1,.95.87Zm0-30.24a.92.92,0,0,1-.95.87h-3.61a.91.91,0,0,1-.94-.87V66.8a.91.91,0,0,1,.94-.87h3.61a.92.92,0,0,1,.95.87Zm0-30.24a.92.92,0,0,1-.95.87h-3.61a.91.91,0,0,1-.94-.87V36.56a.91.91,0,0,1,.94-.87h3.61a.92.92,0,0,1,.95.87Z"/><path class="cls-10" d="M231.1,55.61H171.8A2.71,2.71,0,0,0,169,58.2V201.44A2.71,2.71,0,0,0,171.8,204h59.3a2.71,2.71,0,0,0,2.82-2.59V58.2A2.71,2.71,0,0,0,231.1,55.61ZM182.47,159.37a1.16,1.16,0,0,1-1.2,1.11h-5.4a1.16,1.16,0,0,1-1.2-1.11v-5.22a1.15,1.15,0,0,1,1.2-1.1h5.4a1.15,1.15,0,0,1,1.2,1.1Zm0-12.88a1.15,1.15,0,0,1-1.2,1.1h-5.4a1.15,1.15,0,0,1-1.2-1.1v-5.22a1.16,1.16,0,0,1,1.2-1.11h5.4a1.16,1.16,0,0,1,1.2,1.11Zm0-12.89a1.16,1.16,0,0,1-1.2,1.11h-5.4a1.16,1.16,0,0,1-1.2-1.11v-5.22a1.15,1.15,0,0,1,1.2-1.1h5.4a1.15,1.15,0,0,1,1.2,1.1Zm0-12.88a1.15,1.15,0,0,1-1.2,1.1h-5.4a1.15,1.15,0,0,1-1.2-1.1V115.5a1.16,1.16,0,0,1,1.2-1.11h5.4a1.16,1.16,0,0,1,1.2,1.11Zm0-12.89a1.16,1.16,0,0,1-1.2,1.11h-5.4a1.16,1.16,0,0,1-1.2-1.11v-5.21a1.15,1.15,0,0,1,1.2-1.11h5.4a1.15,1.15,0,0,1,1.2,1.11Zm0-12.88a1.15,1.15,0,0,1-1.2,1.1h-5.4a1.15,1.15,0,0,1-1.2-1.1V89.73a1.16,1.16,0,0,1,1.2-1.11h5.4a1.16,1.16,0,0,1,1.2,1.11Zm0-12.89a1.16,1.16,0,0,1-1.2,1.11h-5.4a1.16,1.16,0,0,1-1.2-1.11V76.85a1.15,1.15,0,0,1,1.2-1.11h5.4a1.15,1.15,0,0,1,1.2,1.11Zm0-12.88a1.15,1.15,0,0,1-1.2,1.1h-5.4a1.15,1.15,0,0,1-1.2-1.1V64a1.16,1.16,0,0,1,1.2-1.11h5.4a1.16,1.16,0,0,1,1.2,1.11Zm10.08,90.19a1.16,1.16,0,0,1-1.2,1.11H186a1.16,1.16,0,0,1-1.21-1.11v-5.22a1.16,1.16,0,0,1,1.21-1.1h5.4a1.15,1.15,0,0,1,1.2,1.1Zm0-12.88a1.15,1.15,0,0,1-1.2,1.1H186a1.16,1.16,0,0,1-1.21-1.1v-5.22a1.16,1.16,0,0,1,1.21-1.11h5.4a1.16,1.16,0,0,1,1.2,1.11Zm0-12.89a1.16,1.16,0,0,1-1.2,1.11H186a1.16,1.16,0,0,1-1.21-1.11v-5.22a1.16,1.16,0,0,1,1.21-1.1h5.4a1.15,1.15,0,0,1,1.2,1.1Zm0-12.88a1.15,1.15,0,0,1-1.2,1.1H186a1.16,1.16,0,0,1-1.21-1.1V115.5a1.16,1.16,0,0,1,1.21-1.11h5.4a1.16,1.16,0,0,1,1.2,1.11Zm0-12.89a1.16,1.16,0,0,1-1.2,1.11H186a1.16,1.16,0,0,1-1.21-1.11v-5.21a1.16,1.16,0,0,1,1.21-1.11h5.4a1.15,1.15,0,0,1,1.2,1.11Zm0-12.88a1.15,1.15,0,0,1-1.2,1.1H186a1.16,1.16,0,0,1-1.21-1.1V89.73A1.16,1.16,0,0,1,186,88.62h5.4a1.16,1.16,0,0,1,1.2,1.11Zm0-12.89a1.16,1.16,0,0,1-1.2,1.11H186a1.16,1.16,0,0,1-1.21-1.11V76.85A1.16,1.16,0,0,1,186,75.74h5.4a1.15,1.15,0,0,1,1.2,1.11Zm0-12.88a1.15,1.15,0,0,1-1.2,1.1H186a1.16,1.16,0,0,1-1.21-1.1V64A1.16,1.16,0,0,1,186,62.85h5.4a1.16,1.16,0,0,1,1.2,1.11Zm10.08,90.19a1.16,1.16,0,0,1-1.21,1.11H196a1.16,1.16,0,0,1-1.2-1.11v-5.22a1.15,1.15,0,0,1,1.2-1.1h5.4a1.16,1.16,0,0,1,1.21,1.1Zm0-12.88a1.16,1.16,0,0,1-1.21,1.1H196a1.15,1.15,0,0,1-1.2-1.1v-5.22a1.16,1.16,0,0,1,1.2-1.11h5.4a1.16,1.16,0,0,1,1.21,1.11Zm0-12.89a1.16,1.16,0,0,1-1.21,1.11H196a1.16,1.16,0,0,1-1.2-1.11v-5.22a1.15,1.15,0,0,1,1.2-1.1h5.4a1.16,1.16,0,0,1,1.21,1.1Zm0-12.88a1.16,1.16,0,0,1-1.21,1.1H196a1.15,1.15,0,0,1-1.2-1.1V115.5a1.16,1.16,0,0,1,1.2-1.11h5.4a1.16,1.16,0,0,1,1.21,1.11Zm0-12.89a1.16,1.16,0,0,1-1.21,1.11H196a1.16,1.16,0,0,1-1.2-1.11v-5.21a1.15,1.15,0,0,1,1.2-1.11h5.4a1.16,1.16,0,0,1,1.21,1.11Zm0-12.88a1.16,1.16,0,0,1-1.21,1.1H196a1.15,1.15,0,0,1-1.2-1.1V89.73a1.16,1.16,0,0,1,1.2-1.11h5.4a1.16,1.16,0,0,1,1.21,1.11Zm0-12.89a1.16,1.16,0,0,1-1.21,1.11H196a1.16,1.16,0,0,1-1.2-1.11V76.85a1.15,1.15,0,0,1,1.2-1.11h5.4a1.16,1.16,0,0,1,1.21,1.11Zm0-12.88a1.16,1.16,0,0,1-1.21,1.1H196a1.15,1.15,0,0,1-1.2-1.1V64a1.16,1.16,0,0,1,1.2-1.11h5.4A1.16,1.16,0,0,1,202.63,64Zm25.21,90.19a1.16,1.16,0,0,1-1.2,1.11H206.1a1.16,1.16,0,0,1-1.2-1.11v-5.22a1.15,1.15,0,0,1,1.2-1.1h20.54a1.15,1.15,0,0,1,1.2,1.1Zm0-12.88a1.15,1.15,0,0,1-1.2,1.1H206.1a1.15,1.15,0,0,1-1.2-1.1v-5.22a1.16,1.16,0,0,1,1.2-1.11h20.54a1.16,1.16,0,0,1,1.2,1.11Zm0-12.89a1.16,1.16,0,0,1-1.2,1.11H206.1a1.16,1.16,0,0,1-1.2-1.11v-5.22a1.15,1.15,0,0,1,1.2-1.1h20.54a1.15,1.15,0,0,1,1.2,1.1Zm0-12.88a1.15,1.15,0,0,1-1.2,1.1H206.1a1.15,1.15,0,0,1-1.2-1.1V115.5a1.16,1.16,0,0,1,1.2-1.11h20.54a1.16,1.16,0,0,1,1.2,1.11Zm0-12.89a1.16,1.16,0,0,1-1.2,1.11H206.1a1.16,1.16,0,0,1-1.2-1.11v-5.21a1.15,1.15,0,0,1,1.2-1.11h20.54a1.15,1.15,0,0,1,1.2,1.11Zm0-12.88a1.15,1.15,0,0,1-1.2,1.1H206.1a1.15,1.15,0,0,1-1.2-1.1V89.73a1.16,1.16,0,0,1,1.2-1.11h20.54a1.16,1.16,0,0,1,1.2,1.11Zm0-12.89a1.16,1.16,0,0,1-1.2,1.11H206.1a1.16,1.16,0,0,1-1.2-1.11V76.85a1.15,1.15,0,0,1,1.2-1.11h20.54a1.15,1.15,0,0,1,1.2,1.11Zm0-12.88a1.15,1.15,0,0,1-1.2,1.1H206.1a1.15,1.15,0,0,1-1.2-1.1V64a1.16,1.16,0,0,1,1.2-1.11h20.54a1.16,1.16,0,0,1,1.2,1.11Z"/><path class="cls-11" d="M161.13,26.68H84.83A2.71,2.71,0,0,0,82,29.27V201.44A2.71,2.71,0,0,0,84.83,204h76.3a2.71,2.71,0,0,0,2.82-2.59V29.27A2.71,2.71,0,0,0,161.13,26.68ZM154.34,161a1.16,1.16,0,0,1-1.2,1.11H92.83A1.16,1.16,0,0,1,91.62,161v-5.21a1.16,1.16,0,0,1,1.21-1.11h60.31a1.15,1.15,0,0,1,1.2,1.11Zm0-14.67a1.15,1.15,0,0,1-1.2,1.1H92.83a1.16,1.16,0,0,1-1.21-1.1v-5.22A1.16,1.16,0,0,1,92.83,140h60.31a1.16,1.16,0,0,1,1.2,1.11Zm0-14.68a1.16,1.16,0,0,1-1.2,1.11H92.83a1.16,1.16,0,0,1-1.21-1.11v-5.22a1.16,1.16,0,0,1,1.21-1.1h60.31a1.15,1.15,0,0,1,1.2,1.1Zm0-14.68a1.16,1.16,0,0,1-1.2,1.11H92.83a1.16,1.16,0,0,1-1.21-1.11v-5.21a1.16,1.16,0,0,1,1.21-1.11h60.31a1.15,1.15,0,0,1,1.2,1.11Zm0-14.67a1.15,1.15,0,0,1-1.2,1.1H92.83a1.16,1.16,0,0,1-1.21-1.1V97a1.16,1.16,0,0,1,1.21-1.11h60.31a1.16,1.16,0,0,1,1.2,1.11Zm0-14.68a1.16,1.16,0,0,1-1.2,1.11H92.83a1.16,1.16,0,0,1-1.21-1.11V82.35a1.16,1.16,0,0,1,1.21-1.1h60.31a1.15,1.15,0,0,1,1.2,1.1Zm0-14.68a1.16,1.16,0,0,1-1.2,1.11H92.83a1.16,1.16,0,0,1-1.21-1.11V67.68a1.16,1.16,0,0,1,1.21-1.11h60.31a1.15,1.15,0,0,1,1.2,1.11Zm0-14.67a1.15,1.15,0,0,1-1.2,1.1H92.83a1.16,1.16,0,0,1-1.21-1.1V53a1.16,1.16,0,0,1,1.21-1.11h60.31a1.16,1.16,0,0,1,1.2,1.11Zm0-14.68a1.16,1.16,0,0,1-1.2,1.11H92.83a1.16,1.16,0,0,1-1.21-1.11V38.32a1.16,1.16,0,0,1,1.21-1.1h60.31a1.15,1.15,0,0,1,1.2,1.1Z"/><path class="cls-12" d="M306.21,0H240.82a2.51,2.51,0,0,0-2.42,2.59V206.94a2.51,2.51,0,0,0,2.42,2.6h65.39a2.51,2.51,0,0,0,2.41-2.6V2.59A2.51,2.51,0,0,0,306.21,0Zm-5.82,134.28a1.06,1.06,0,0,1-1,1.1H247.67a1.06,1.06,0,0,1-1-1.1v-5.22a1.07,1.07,0,0,1,1-1.11h51.69a1.07,1.07,0,0,1,1,1.11Zm0-14.68a1.07,1.07,0,0,1-1,1.11H247.67a1.07,1.07,0,0,1-1-1.11v-5.22a1.06,1.06,0,0,1,1-1.1h51.69a1.06,1.06,0,0,1,1,1.1Zm0-14.68a1.07,1.07,0,0,1-1,1.11H247.67a1.07,1.07,0,0,1-1-1.11V99.71a1.07,1.07,0,0,1,1-1.11h51.69a1.07,1.07,0,0,1,1,1.11Zm0-14.67a1.06,1.06,0,0,1-1,1.1H247.67a1.06,1.06,0,0,1-1-1.1V85a1.07,1.07,0,0,1,1-1.11h51.69a1.07,1.07,0,0,1,1,1.11Zm0-14.68a1.07,1.07,0,0,1-1,1.11H247.67a1.07,1.07,0,0,1-1-1.11V70.35a1.06,1.06,0,0,1,1-1.1h51.69a1.06,1.06,0,0,1,1,1.1Zm0-14.68a1.07,1.07,0,0,1-1,1.11H247.67a1.07,1.07,0,0,1-1-1.11V55.68a1.07,1.07,0,0,1,1-1.11h51.69a1.07,1.07,0,0,1,1,1.11Zm0-14.67a1.06,1.06,0,0,1-1,1.1H247.67a1.06,1.06,0,0,1-1-1.1V41a1.07,1.07,0,0,1,1-1.11h51.69a1.07,1.07,0,0,1,1,1.11Zm0-14.68a1.07,1.07,0,0,1-1,1.11H247.67a1.07,1.07,0,0,1-1-1.11V26.32a1.06,1.06,0,0,1,1-1.1h51.69a1.06,1.06,0,0,1,1,1.1Zm0-14.68a1.07,1.07,0,0,1-1,1.11H247.67a1.07,1.07,0,0,1-1-1.11V11.65a1.07,1.07,0,0,1,1-1.11h51.69a1.07,1.07,0,0,1,1,1.11Z"/></g><path class="cls-13" d="M223.19,174.22a3.46,3.46,0,0,0,.79-.3c.29-.11.55-.21.8-.29l6.41,15.22-1.51-.71-1.48-.69-6-12.81h0Z"/><path class="cls-14" d="M229.68,214.59V188.14l1.51.71V173h0l2.15-.08v43.68l-6,17.69L223,230.1Z"/><path class="cls-14" d="M181.44,147.14,165.53,150c-2,0-3.6,3.11-3.6,6.95s1.61,6.94,3.6,6.94l15.91,2.89c-1.61,20.41-8.12,35.66-15.91,35.66-9,0-16.28-20.36-16.28-45.49s7.3-45.5,16.28-45.5C173.32,111.47,179.83,126.74,181.44,147.14Z"/><path class="cls-13" d="M181.44,147.14c.25,3.16.38,6.45.38,9.83s-.13,6.67-.38,9.83l-15.91-2.89c2,0,3.62-3.11,3.62-6.94s-1.62-6.95-3.62-6.95Z"/><path class="cls-15" d="M165.53,150c2,0,3.62,3.11,3.62,6.95s-1.62,6.94-3.62,6.94-3.6-3.11-3.6-6.94S163.54,150,165.53,150Z"/><path class="cls-15" d="M176.8,115.5c5.64,7.15,9.57,23,9.57,41.47s-3.93,34.34-9.58,41.48c-2,2.58-4.31,4-6.7,4h-4.56c7.79,0,14.3-15.25,15.91-35.66.25-3.16.38-6.45.38-9.83s-.13-6.67-.38-9.83c-1.61-20.4-8.12-35.67-15.91-35.67h4.56c2.39,0,4.66,1.44,6.7,4Z"/><path class="cls-15" d="M226.67,173.17l4.52-.2h0v15.87l-6.41-15.22A8.16,8.16,0,0,1,226.67,173.17Z"/><path class="cls-13" d="M224,173.92c3.27-1.7,5.7-8.66,5.7-16.95s-2.74-15.33-5.88-17a12.25,12.25,0,0,0,2.87.81c3.68,0,6.67,7.25,6.67,16.2s-3,16.2-6.67,16.2a8.16,8.16,0,0,0-1.89.46C224.53,173.71,224.27,173.81,224,173.92Z"/><path class="cls-13" d="M253.65,157c0,8.92-2.65,11.37-6.31,11.38A27.88,27.88,0,0,0,249.43,157c0-5-.93-9.2-2.38-12C250.7,145,253.65,148.07,253.65,157Z"/><path class="cls-13" d="M242.76,172.43v61.83h-15.4l6-17.69V172.89h0C237.53,172.71,239,172.66,242.76,172.43Z"/><path class="cls-16" d="M247.05,145c1.45,2.76,2.38,7,2.38,12a27.88,27.88,0,0,1-2.09,11.38c-1.2,2.57-2.81,4.08-4.58,4.08-3.73.23-5.23.28-9.42.45h0l-2.15.08-4.52.2c3.68,0,6.67-7.25,6.67-16.2s-3-16.2-6.67-16.2c9.44.34,10.86.42,16.09.73C244.39,141.5,245.89,142.79,247.05,145Z"/><path class="cls-16" d="M229.68,157c0,8.29-2.43,15.25-5.7,16.95l-.79.3-1,.41c-11.27,4.73-37.82,19.53-45.39,23.82,5.65-7.14,9.58-23,9.58-41.48s-3.93-34.32-9.57-41.47c8,4.5,36.9,20.64,47,24.46C226.94,141.64,229.68,148.71,229.68,157Z"/><path class="cls-17" d="M318,239.51c.51-.24.53-1.24.21-1.68.14.28-.07.51-.47.49a23.32,23.32,0,0,1-10.8-2.24c-1-.24-3.39-.18-4.68-.42a1.7,1.7,0,0,1-1.53-1.41,1.76,1.76,0,0,0-.29,2.26c.51.93,3.78,1.25,4.4,1.32s7,.88,7.89,1.24A16.57,16.57,0,0,0,318,239.51Z"/><path class="cls-17" d="M274.93,237.83c-.32.44-.3,1.44.21,1.68a16.57,16.57,0,0,0,5.27-.44c.92-.36,7.27-1.17,7.89-1.24s3.89-.39,4.4-1.32a1.76,1.76,0,0,0-.29-2.26,1.69,1.69,0,0,1-1.53,1.41c-1.29.24-3.72.18-4.68.42a23.37,23.37,0,0,1-10.8,2.24C275,238.34,274.79,238.11,274.93,237.83Z"/><path class="cls-18" d="M301.6,231.49a13.69,13.69,0,0,0-.89,2.43,1.82,1.82,0,0,0,0,.33,1.7,1.7,0,0,0,1.53,1.41c1.29.24,3.72.18,4.68.42a23.32,23.32,0,0,0,10.8,2.24c.4,0,.61-.21.47-.49a26.93,26.93,0,0,0-4.38-3.14,11.87,11.87,0,0,1-5.46-4.5,2.13,2.13,0,0,0-.7-.11c-.8,0-1.51.42-1.52.9s.37,1.21-.49,1.23a2.54,2.54,0,0,1-2.13-1.11c-.28-.55-.26-1-.92-.91l-.44,0c-.35,0-.53,0-.65.14S301.79,231,301.6,231.49Z"/><path class="cls-18" d="M274.93,237.83c-.14.28.07.51.47.49a23.37,23.37,0,0,0,10.8-2.24c1-.24,3.39-.18,4.68-.42a1.69,1.69,0,0,0,1.53-1.41,1.82,1.82,0,0,0,0-.33,13.69,13.69,0,0,0-.89-2.43c-.19-.48.25-.88.1-1.14s-.43-.09-1.09-.16-.64.36-.92.91a2.54,2.54,0,0,1-2.13,1.11c-.86,0-.49-.61-.49-1.23,0-.41-.52-.77-1.18-.87a2.19,2.19,0,0,0-1,.08,11.87,11.87,0,0,1-5.46,4.5A26.5,26.5,0,0,0,274.93,237.83Z"/><path class="cls-19" d="M292.34,186.81l.63,2.89L301.3,228h.84l4.86-.1h.28l-5.53-40.52c-.16-.22-.56-.71-1-1.28A49,49,0,0,1,292.34,186.81Z"/><path class="cls-19" d="M285.15,186.17l.28,41.8h5.72L293,189.7h0l-.63-2.89C289.06,186.84,286.12,186.62,285.15,186.17Z"/><path class="cls-18" d="M292.34,186.81a49,49,0,0,0,8.41-.7c-.79-1-1.72-2.31-1.56-2.61.27-.5,1.36-.61,1.87-.66l1.4-2.51-1.4-14.39,1.37,2.68,1.44-1,4.61-3.35h0l.51-.37-4.79-7.19a3.16,3.16,0,0,0-2.48-1.75,41.4,41.4,0,0,1-5.14-.89c-.27.94-5.45.72-6.06-.67-1,0-4-.16-5.94-.26a4.4,4.4,0,0,0-2.94.93l-5,3.9,2.58,5.38,1.36,2.84,3.83-3.47s.44,21.39.45,23.32a1.05,1.05,0,0,0,.27.17C286.12,186.62,289.06,186.84,292.34,186.81Z"/><path class="cls-20" d="M285.81,228v2.14c.66.1,1.17.46,1.18.87,0,.62-.37,1.21.49,1.23a2.54,2.54,0,0,0,2.13-1.11c.28-.55.26-1,.92-.91l0-2.22Z"/><path class="cls-21" d="M285.81,228v.41c.66.1,4.08,0,4.74,0V228Z"/><path class="cls-21" d="M285.81,229.76v.35c.66.1,1.17.46,1.18.87,0,.62-.37,1.21.49,1.23a2.54,2.54,0,0,0,2.13-1.11c.28-.55.26-1,.92-.91l0-.68-.47,0c-.29,0-.94,1.34-1.35,1.63-1.28.91-1.29-.78-1.75-1A2.82,2.82,0,0,0,285.81,229.76Z"/><path class="cls-20" d="M302.14,228a5.52,5.52,0,0,1,0,2.19l.44,0c.66-.07.64.36.92.91a2.54,2.54,0,0,0,2.13,1.11c.86,0,.49-.61.49-1.23s.72-.9,1.52-.9a16.41,16.41,0,0,1-.65-2.16Z"/><path class="cls-21" d="M302.14,228a1.51,1.51,0,0,1,.09.56c.12,0,4.11-.12,4.92-.12-.08-.24-.11-.41-.15-.54Z"/><path class="cls-22" d="M300.75,186.11c.44.57.84,1.06,1,1.28l.05.07c.7-.12,1.37-2.7,1.37-2.7l-2.11-1.92c-.51,0-1.6.16-1.87.66C299,183.8,300,185.08,300.75,186.11Z"/><path class="cls-20" d="M302.46,180.33l-1.4,2.51,2.11,1.92,9-11.49a1.75,1.75,0,0,0,.16-1.91l-4.22-6.84-4.2,3.06,3.18,4.49Z"/><path class="cls-21" d="M308.73,165.58l-.66-1.06-4.2,3.06.51.72S308,165.9,308.73,165.58Z"/><path class="cls-20" d="M267.84,144.84c-.14.07-.53.09-.51.34a57.59,57.59,0,0,0,.14,6l1.9,16.75a1.17,1.17,0,0,0,1.81.83l8.06-5.42-2.58-5.38-4.39,3.44-1.73-10.43c.12-.76,2.2-3.06,2.58-3.36a.52.52,0,0,0-.44-.79c-.19,0-.76.49-1,.43s.16-2.82.07-3-.56-.46-.74-.15-.28,2.09-.37,2.12a25.15,25.15,0,0,1-.32-2.67c0-.26-.73-.37-.8-.06-.16-.17-.68,0-.71.2s-.21,2.5-.26,2.67C268.4,146.2,268,144.77,267.84,144.84Z"/><path class="cls-21" d="M278.32,163.94l.92-.63-2.58-5.38-.33.26S277.79,162.8,278.32,163.94Z"/><path class="cls-20" d="M290.81,153.36h-.29c.61,1.39,5.79,1.61,6.06.67a3.49,3.49,0,0,1-1.19-.51,2.74,2.74,0,0,1-.61-2.46c0-.33.1-.61.14-.82a4.05,4.05,0,0,1-2.24.59,4,4,0,0,1-1.56-.34C291.13,151,291.23,153.29,290.81,153.36Z"/><path class="cls-21" d="M294.73,151.72a9.57,9.57,0,0,1,.19-1.48,4.05,4.05,0,0,1-2.24.59,4,4,0,0,1-1.56-.34A6.9,6.9,0,0,0,294.73,151.72Z"/><path class="cls-20" d="M297.08,145.09a2.67,2.67,0,0,0,0-.4v.07a2.21,2.21,0,0,1-.82,1,3.46,3.46,0,0,0-.09-2.19,2.68,2.68,0,0,0-.45-.68,3.4,3.4,0,0,0-2.44-1.14,15.78,15.78,0,0,0-3.41.49l-.07.06c-.23.39-1.89,6.63,1.33,8.18a4,4,0,0,0,1.56.34,4.05,4.05,0,0,0,2.24-.59h0C296,149.58,297,148.15,297.08,145.09Z"/><path d="M295.29,151.47c0-2.11,2.11-2.86,3.23-4.55a5.78,5.78,0,0,0,.57-5.07c-.47-1.36-2.34-2.19-2.84-1.95-.1-.68-1.19-1.54-2.69-1.71a4.61,4.61,0,0,0-3.82,1.61c-.66.9-1.41,1.69-2.12,1.36a2.13,2.13,0,0,0,1.29,1.11,2.19,2.19,0,0,0,.95,0,15.78,15.78,0,0,1,3.41-.49,3.4,3.4,0,0,1,2.44,1.14,2.68,2.68,0,0,1,.45.68,3.46,3.46,0,0,1,.09,2.19,2.21,2.21,0,0,0,.82-1v-.07a2.67,2.67,0,0,1,0,.4c-.07,3.06-1.11,4.49-2.16,5.15h0c0,.21-.1.49-.14.82A3.59,3.59,0,0,0,295.29,151.47Z"/><polygon class="cls-23" points="292.85 189.72 293.08 189.67 292.46 186.82 292.35 186.81 292.22 186.81 292.85 189.72"/><path class="cls-24" d="M318.19,237.83c.32.44.3,1.44-.21,1.68a16.57,16.57,0,0,1-5.27-.44c-.92-.36-7.27-1.17-7.89-1.24s-3.89-.39-4.4-1.32a1.76,1.76,0,0,1,.29-2.26h0"/><path class="cls-24" d="M274.93,237.83c-.32.44-.3,1.44.21,1.68a16.57,16.57,0,0,0,5.27-.44c.92-.36,7.27-1.17,7.89-1.24s3.89-.39,4.4-1.32a1.76,1.76,0,0,0-.29-2.26"/><ellipse class="cls-20" cx="297.03" cy="145.88" rx="1.2" ry="0.82" transform="translate(48.34 364.19) rotate(-67.44)"/><ellipse class="cls-21" cx="297.03" cy="145.88" rx="0.7" ry="0.48" transform="translate(48.34 364.19) rotate(-67.44)"/><path class="cls-21" d="M307.5,229.74a1.13,1.13,0,0,0,.15.34,2.6,2.6,0,0,0-.33,0c-.66.1-1.17.46-1.18.87,0,.62.37,1.21-.49,1.23a2.54,2.54,0,0,1-2.13-1.11c-.28-.55-.26-1-.92-.91l-.45,0a3.05,3.05,0,0,0,.1-.7l.79,0c.29,0,.94,1.34,1.35,1.63,1.28.91,1.29-.78,1.75-1A3.13,3.13,0,0,1,307.5,229.74Z"/><path class="cls-16" d="M242.76,85.59c14.13,0,25.59,8,25.59,17.76,0,4.29-2.18,8.22-5.82,11.29l4,5.4-7.93-2.71a33.23,33.23,0,0,1-15.79,3.79c-14.13,0-25.59-8-25.59-17.77S228.63,85.59,242.76,85.59Z"/><circle class="cls-25" cx="242.76" cy="103.35" r="2.41"/><circle class="cls-25" cx="251.31" cy="103.35" r="2.41"/><circle class="cls-25" cx="234.22" cy="103.35" r="2.41"/></g></g></svg>