<svg xmlns="http://www.w3.org/2000/svg" xmlns:xlink="http://www.w3.org/1999/xlink" viewBox="0 0 456.01 262.12"><defs><style>.cls-1,.cls-2,.cls-27,.cls-3,.cls-4,.cls-5,.cls-6{fill:none;stroke-miterlimit:10;}.cls-1,.cls-2,.cls-3,.cls-4,.cls-5,.cls-6{stroke-width:2px;}.cls-1{stroke:url(#gri_26);}.cls-2{stroke:url(#gri_26-2);}.cls-3{stroke:url(#gri_26-3);}.cls-4{stroke:url(#gri_26-4);}.cls-5{stroke:url(#gri_26-5);}.cls-6{stroke:url(#gri_26-6);}.cls-10,.cls-11,.cls-12,.cls-7,.cls-9{opacity:0.4;}.cls-7{fill:url(#gri_26-7);}.cls-8{opacity:0.7;}.cls-9{fill:url(#gri_26-8);}.cls-10{fill:url(#gri_26-9);}.cls-11{fill:url(#gri_26-10);}.cls-12{fill:url(#gri_26-11);}.cls-13{fill:#3d9ef5;}.cls-14{fill:#40a8f5;}.cls-15{fill:#53b9f5;}.cls-16{fill:#8cd7ff;}.cls-17{opacity:0.21;}.cls-18{font-size:104.84px;fill:#fff;font-family:ArialRoundedMTBold, Arial Rounded MT Bold;}.cls-19{fill:#257fba;}.cls-20{fill:#398eed;}.cls-21{fill:#e49056;}.cls-22{fill:#ffb056;}.cls-23{fill:#d0864c;}.cls-24{fill:#fae6d2;}.cls-25{fill:#f0dabc;}.cls-26{fill:#ffeed2;}.cls-27{stroke:#e49056;stroke-width:0.25px;}.cls-28,.cls-30{opacity:0.2;}.cls-29,.cls-30{fill:#e55c5c;}</style><linearGradient id="gri_26" x1="1" y1="91.35" x2="1" y2="181.12" gradientUnits="userSpaceOnUse"><stop offset="0" stop-color="#81cfff"/><stop offset="1" stop-color="#5ecfff" stop-opacity="0"/></linearGradient><linearGradient id="gri_26-2" x1="455.01" y1="72.11" x2="455.01" y2="161.88" xlink:href="#gri_26"/><linearGradient id="gri_26-3" x1="40.9" y1="143.88" x2="40.9" y2="199.51" xlink:href="#gri_26"/><linearGradient id="gri_26-4" x1="64.97" y1="95.36" x2="64.97" y2="123.17" xlink:href="#gri_26"/><linearGradient id="gri_26-5" x1="397.23" y1="104.2" x2="397.23" y2="132.02" xlink:href="#gri_26"/><linearGradient id="gri_26-6" x1="424.75" y1="133.49" x2="424.75" y2="189.13" xlink:href="#gri_26"/><linearGradient id="gri_26-7" x1="232.75" y1="224.43" x2="232.75" y2="262.12" xlink:href="#gri_26"/><linearGradient id="gri_26-8" x1="349.36" y1="26.68" x2="349.36" y2="204.03" xlink:href="#gri_26"/><linearGradient id="gri_26-9" x1="201.45" y1="55.61" x2="201.45" y2="204.03" xlink:href="#gri_26"/><linearGradient id="gri_26-10" x1="122.98" y1="26.68" x2="122.98" y2="204.03" xlink:href="#gri_26"/><linearGradient id="gri_26-11" x1="273.51" y1="0" x2="273.51" y2="209.54" xlink:href="#gri_26"/></defs><title>暂无任务</title><g id="layer_2" data-name="layer 2"><g id="layer_1-2" data-name="layer 1"><line class="cls-1" x1="1" y1="91.35" x2="1" y2="181.12"/><line class="cls-2" x1="455.01" y1="72.11" x2="455.01" y2="161.88"/><line class="cls-3" x1="40.9" y1="143.88" x2="40.9" y2="199.51"/><line class="cls-4" x1="64.97" y1="95.36" x2="64.97" y2="123.17"/><line class="cls-5" x1="397.23" y1="104.2" x2="397.23" y2="132.02"/><line class="cls-6" x1="424.75" y1="133.49" x2="424.75" y2="189.13"/><path class="cls-7" d="M412.28,262.12c-23-23-61-37.69-179.53-37.69S76.24,239.1,53.21,262.12Z"/><g class="cls-8"><path class="cls-9" d="M380.66,26.68H318.07a2.71,2.71,0,0,0-2.82,2.59V201.44a2.71,2.71,0,0,0,2.82,2.59h62.59a2.72,2.72,0,0,0,2.82-2.59V29.27A2.72,2.72,0,0,0,380.66,26.68ZM328.3,147a.9.9,0,0,1-.95.87h-3.6a.9.9,0,0,1-.95-.87V127.27a.91.91,0,0,1,.95-.87h3.6a.91.91,0,0,1,.95.87Zm0-30.23a.91.91,0,0,1-.95.87h-3.6a.91.91,0,0,1-.95-.87V97a.91.91,0,0,1,.95-.87h3.6a.91.91,0,0,1,.95.87Zm0-30.24a.91.91,0,0,1-.95.87h-3.6a.91.91,0,0,1-.95-.87V66.8a.91.91,0,0,1,.95-.87h3.6a.91.91,0,0,1,.95.87Zm0-30.24a.91.91,0,0,1-.95.87h-3.6a.91.91,0,0,1-.95-.87V36.56a.91.91,0,0,1,.95-.87h3.6a.91.91,0,0,1,.95.87ZM340,147a.9.9,0,0,1-.94.87h-3.61a.91.91,0,0,1-.95-.87V127.27a.92.92,0,0,1,.95-.87h3.61a.91.91,0,0,1,.94.87Zm0-30.23a.91.91,0,0,1-.94.87h-3.61a.92.92,0,0,1-.95-.87V97a.92.92,0,0,1,.95-.87h3.61A.91.91,0,0,1,340,97Zm0-30.24a.91.91,0,0,1-.94.87h-3.61a.92.92,0,0,1-.95-.87V66.8a.92.92,0,0,1,.95-.87h3.61a.91.91,0,0,1,.94.87Zm0-30.24a.91.91,0,0,1-.94.87h-3.61a.92.92,0,0,1-.95-.87V36.56a.92.92,0,0,1,.95-.87h3.61a.91.91,0,0,1,.94.87ZM351.7,147a.9.9,0,0,1-.94.87h-3.61a.9.9,0,0,1-.94-.87V127.27a.91.91,0,0,1,.94-.87h3.61a.91.91,0,0,1,.94.87Zm0-30.23a.91.91,0,0,1-.94.87h-3.61a.91.91,0,0,1-.94-.87V97a.91.91,0,0,1,.94-.87h3.61a.91.91,0,0,1,.94.87Zm0-30.24a.91.91,0,0,1-.94.87h-3.61a.91.91,0,0,1-.94-.87V66.8a.91.91,0,0,1,.94-.87h3.61a.91.91,0,0,1,.94.87Zm0-30.24a.91.91,0,0,1-.94.87h-3.61a.91.91,0,0,1-.94-.87V36.56a.91.91,0,0,1,.94-.87h3.61a.91.91,0,0,1,.94.87ZM363.4,147a.9.9,0,0,1-.94.87h-3.61a.9.9,0,0,1-.94-.87V127.27a.91.91,0,0,1,.94-.87h3.61a.91.91,0,0,1,.94.87Zm0-30.23a.91.91,0,0,1-.94.87h-3.61a.91.91,0,0,1-.94-.87V97a.91.91,0,0,1,.94-.87h3.61a.91.91,0,0,1,.94.87Zm0-30.24a.91.91,0,0,1-.94.87h-3.61a.91.91,0,0,1-.94-.87V66.8a.91.91,0,0,1,.94-.87h3.61a.91.91,0,0,1,.94.87Zm0-30.24a.91.91,0,0,1-.94.87h-3.61a.91.91,0,0,1-.94-.87V36.56a.91.91,0,0,1,.94-.87h3.61a.91.91,0,0,1,.94.87ZM375.11,147a.91.91,0,0,1-.95.87h-3.61a.9.9,0,0,1-.94-.87V127.27a.91.91,0,0,1,.94-.87h3.61a.92.92,0,0,1,.95.87Zm0-30.23a.92.92,0,0,1-.95.87h-3.61a.91.91,0,0,1-.94-.87V97a.91.91,0,0,1,.94-.87h3.61a.92.92,0,0,1,.95.87Zm0-30.24a.92.92,0,0,1-.95.87h-3.61a.91.91,0,0,1-.94-.87V66.8a.91.91,0,0,1,.94-.87h3.61a.92.92,0,0,1,.95.87Zm0-30.24a.92.92,0,0,1-.95.87h-3.61a.91.91,0,0,1-.94-.87V36.56a.91.91,0,0,1,.94-.87h3.61a.92.92,0,0,1,.95.87Z"/><path class="cls-10" d="M231.1,55.61H171.8A2.71,2.71,0,0,0,169,58.2V201.44A2.71,2.71,0,0,0,171.8,204h59.3a2.71,2.71,0,0,0,2.82-2.59V58.2A2.71,2.71,0,0,0,231.1,55.61ZM182.47,159.37a1.16,1.16,0,0,1-1.2,1.11h-5.4a1.16,1.16,0,0,1-1.2-1.11v-5.22a1.15,1.15,0,0,1,1.2-1.1h5.4a1.15,1.15,0,0,1,1.2,1.1Zm0-12.88a1.15,1.15,0,0,1-1.2,1.1h-5.4a1.15,1.15,0,0,1-1.2-1.1v-5.22a1.16,1.16,0,0,1,1.2-1.11h5.4a1.16,1.16,0,0,1,1.2,1.11Zm0-12.89a1.16,1.16,0,0,1-1.2,1.11h-5.4a1.16,1.16,0,0,1-1.2-1.11v-5.22a1.15,1.15,0,0,1,1.2-1.1h5.4a1.15,1.15,0,0,1,1.2,1.1Zm0-12.88a1.15,1.15,0,0,1-1.2,1.1h-5.4a1.15,1.15,0,0,1-1.2-1.1V115.5a1.16,1.16,0,0,1,1.2-1.11h5.4a1.16,1.16,0,0,1,1.2,1.11Zm0-12.89a1.16,1.16,0,0,1-1.2,1.11h-5.4a1.16,1.16,0,0,1-1.2-1.11v-5.21a1.15,1.15,0,0,1,1.2-1.11h5.4a1.15,1.15,0,0,1,1.2,1.11Zm0-12.88a1.15,1.15,0,0,1-1.2,1.1h-5.4a1.15,1.15,0,0,1-1.2-1.1V89.73a1.16,1.16,0,0,1,1.2-1.11h5.4a1.16,1.16,0,0,1,1.2,1.11Zm0-12.89a1.16,1.16,0,0,1-1.2,1.11h-5.4a1.16,1.16,0,0,1-1.2-1.11V76.85a1.15,1.15,0,0,1,1.2-1.11h5.4a1.15,1.15,0,0,1,1.2,1.11Zm0-12.88a1.15,1.15,0,0,1-1.2,1.1h-5.4a1.15,1.15,0,0,1-1.2-1.1V64a1.16,1.16,0,0,1,1.2-1.11h5.4a1.16,1.16,0,0,1,1.2,1.11Zm10.08,90.19a1.16,1.16,0,0,1-1.2,1.11H186a1.16,1.16,0,0,1-1.21-1.11v-5.22a1.16,1.16,0,0,1,1.21-1.1h5.4a1.15,1.15,0,0,1,1.2,1.1Zm0-12.88a1.15,1.15,0,0,1-1.2,1.1H186a1.16,1.16,0,0,1-1.21-1.1v-5.22a1.16,1.16,0,0,1,1.21-1.11h5.4a1.16,1.16,0,0,1,1.2,1.11Zm0-12.89a1.16,1.16,0,0,1-1.2,1.11H186a1.16,1.16,0,0,1-1.21-1.11v-5.22a1.16,1.16,0,0,1,1.21-1.1h5.4a1.15,1.15,0,0,1,1.2,1.1Zm0-12.88a1.15,1.15,0,0,1-1.2,1.1H186a1.16,1.16,0,0,1-1.21-1.1V115.5a1.16,1.16,0,0,1,1.21-1.11h5.4a1.16,1.16,0,0,1,1.2,1.11Zm0-12.89a1.16,1.16,0,0,1-1.2,1.11H186a1.16,1.16,0,0,1-1.21-1.11v-5.21a1.16,1.16,0,0,1,1.21-1.11h5.4a1.15,1.15,0,0,1,1.2,1.11Zm0-12.88a1.15,1.15,0,0,1-1.2,1.1H186a1.16,1.16,0,0,1-1.21-1.1V89.73A1.16,1.16,0,0,1,186,88.62h5.4a1.16,1.16,0,0,1,1.2,1.11Zm0-12.89a1.16,1.16,0,0,1-1.2,1.11H186a1.16,1.16,0,0,1-1.21-1.11V76.85A1.16,1.16,0,0,1,186,75.74h5.4a1.15,1.15,0,0,1,1.2,1.11Zm0-12.88a1.15,1.15,0,0,1-1.2,1.1H186a1.16,1.16,0,0,1-1.21-1.1V64A1.16,1.16,0,0,1,186,62.85h5.4a1.16,1.16,0,0,1,1.2,1.11Zm10.08,90.19a1.16,1.16,0,0,1-1.21,1.11H196a1.16,1.16,0,0,1-1.2-1.11v-5.22a1.15,1.15,0,0,1,1.2-1.1h5.4a1.16,1.16,0,0,1,1.21,1.1Zm0-12.88a1.16,1.16,0,0,1-1.21,1.1H196a1.15,1.15,0,0,1-1.2-1.1v-5.22a1.16,1.16,0,0,1,1.2-1.11h5.4a1.16,1.16,0,0,1,1.21,1.11Zm0-12.89a1.16,1.16,0,0,1-1.21,1.11H196a1.16,1.16,0,0,1-1.2-1.11v-5.22a1.15,1.15,0,0,1,1.2-1.1h5.4a1.16,1.16,0,0,1,1.21,1.1Zm0-12.88a1.16,1.16,0,0,1-1.21,1.1H196a1.15,1.15,0,0,1-1.2-1.1V115.5a1.16,1.16,0,0,1,1.2-1.11h5.4a1.16,1.16,0,0,1,1.21,1.11Zm0-12.89a1.16,1.16,0,0,1-1.21,1.11H196a1.16,1.16,0,0,1-1.2-1.11v-5.21a1.15,1.15,0,0,1,1.2-1.11h5.4a1.16,1.16,0,0,1,1.21,1.11Zm0-12.88a1.16,1.16,0,0,1-1.21,1.1H196a1.15,1.15,0,0,1-1.2-1.1V89.73a1.16,1.16,0,0,1,1.2-1.11h5.4a1.16,1.16,0,0,1,1.21,1.11Zm0-12.89a1.16,1.16,0,0,1-1.21,1.11H196a1.16,1.16,0,0,1-1.2-1.11V76.85a1.15,1.15,0,0,1,1.2-1.11h5.4a1.16,1.16,0,0,1,1.21,1.11Zm0-12.88a1.16,1.16,0,0,1-1.21,1.1H196a1.15,1.15,0,0,1-1.2-1.1V64a1.16,1.16,0,0,1,1.2-1.11h5.4A1.16,1.16,0,0,1,202.63,64Zm25.21,90.19a1.16,1.16,0,0,1-1.2,1.11H206.1a1.16,1.16,0,0,1-1.2-1.11v-5.22a1.15,1.15,0,0,1,1.2-1.1h20.54a1.15,1.15,0,0,1,1.2,1.1Zm0-12.88a1.15,1.15,0,0,1-1.2,1.1H206.1a1.15,1.15,0,0,1-1.2-1.1v-5.22a1.16,1.16,0,0,1,1.2-1.11h20.54a1.16,1.16,0,0,1,1.2,1.11Zm0-12.89a1.16,1.16,0,0,1-1.2,1.11H206.1a1.16,1.16,0,0,1-1.2-1.11v-5.22a1.15,1.15,0,0,1,1.2-1.1h20.54a1.15,1.15,0,0,1,1.2,1.1Zm0-12.88a1.15,1.15,0,0,1-1.2,1.1H206.1a1.15,1.15,0,0,1-1.2-1.1V115.5a1.16,1.16,0,0,1,1.2-1.11h20.54a1.16,1.16,0,0,1,1.2,1.11Zm0-12.89a1.16,1.16,0,0,1-1.2,1.11H206.1a1.16,1.16,0,0,1-1.2-1.11v-5.21a1.15,1.15,0,0,1,1.2-1.11h20.54a1.15,1.15,0,0,1,1.2,1.11Zm0-12.88a1.15,1.15,0,0,1-1.2,1.1H206.1a1.15,1.15,0,0,1-1.2-1.1V89.73a1.16,1.16,0,0,1,1.2-1.11h20.54a1.16,1.16,0,0,1,1.2,1.11Zm0-12.89a1.16,1.16,0,0,1-1.2,1.11H206.1a1.16,1.16,0,0,1-1.2-1.11V76.85a1.15,1.15,0,0,1,1.2-1.11h20.54a1.15,1.15,0,0,1,1.2,1.11Zm0-12.88a1.15,1.15,0,0,1-1.2,1.1H206.1a1.15,1.15,0,0,1-1.2-1.1V64a1.16,1.16,0,0,1,1.2-1.11h20.54a1.16,1.16,0,0,1,1.2,1.11Z"/><path class="cls-11" d="M161.13,26.68H84.83A2.71,2.71,0,0,0,82,29.27V201.44A2.71,2.71,0,0,0,84.83,204h76.3a2.71,2.71,0,0,0,2.82-2.59V29.27A2.71,2.71,0,0,0,161.13,26.68ZM154.34,161a1.16,1.16,0,0,1-1.2,1.11H92.83A1.16,1.16,0,0,1,91.62,161v-5.21a1.16,1.16,0,0,1,1.21-1.11h60.31a1.15,1.15,0,0,1,1.2,1.11Zm0-14.67a1.15,1.15,0,0,1-1.2,1.1H92.83a1.16,1.16,0,0,1-1.21-1.1v-5.22A1.16,1.16,0,0,1,92.83,140h60.31a1.16,1.16,0,0,1,1.2,1.11Zm0-14.68a1.16,1.16,0,0,1-1.2,1.11H92.83a1.16,1.16,0,0,1-1.21-1.11v-5.22a1.16,1.16,0,0,1,1.21-1.1h60.31a1.15,1.15,0,0,1,1.2,1.1Zm0-14.68a1.16,1.16,0,0,1-1.2,1.11H92.83a1.16,1.16,0,0,1-1.21-1.11v-5.21a1.16,1.16,0,0,1,1.21-1.11h60.31a1.15,1.15,0,0,1,1.2,1.11Zm0-14.67a1.15,1.15,0,0,1-1.2,1.1H92.83a1.16,1.16,0,0,1-1.21-1.1V97a1.16,1.16,0,0,1,1.21-1.11h60.31a1.16,1.16,0,0,1,1.2,1.11Zm0-14.68a1.16,1.16,0,0,1-1.2,1.11H92.83a1.16,1.16,0,0,1-1.21-1.11V82.35a1.16,1.16,0,0,1,1.21-1.1h60.31a1.15,1.15,0,0,1,1.2,1.1Zm0-14.68a1.16,1.16,0,0,1-1.2,1.11H92.83a1.16,1.16,0,0,1-1.21-1.11V67.68a1.16,1.16,0,0,1,1.21-1.11h60.31a1.15,1.15,0,0,1,1.2,1.11Zm0-14.67a1.15,1.15,0,0,1-1.2,1.1H92.83a1.16,1.16,0,0,1-1.21-1.1V53a1.16,1.16,0,0,1,1.21-1.11h60.31a1.16,1.16,0,0,1,1.2,1.11Zm0-14.68a1.16,1.16,0,0,1-1.2,1.11H92.83a1.16,1.16,0,0,1-1.21-1.11V38.32a1.16,1.16,0,0,1,1.21-1.1h60.31a1.15,1.15,0,0,1,1.2,1.1Z"/><path class="cls-12" d="M306.21,0H240.82a2.51,2.51,0,0,0-2.42,2.59V206.94a2.51,2.51,0,0,0,2.42,2.6h65.39a2.51,2.51,0,0,0,2.41-2.6V2.59A2.51,2.51,0,0,0,306.21,0Zm-5.82,134.28a1.06,1.06,0,0,1-1,1.1H247.67a1.06,1.06,0,0,1-1-1.1v-5.22a1.07,1.07,0,0,1,1-1.11h51.69a1.07,1.07,0,0,1,1,1.11Zm0-14.68a1.07,1.07,0,0,1-1,1.11H247.67a1.07,1.07,0,0,1-1-1.11v-5.22a1.06,1.06,0,0,1,1-1.1h51.69a1.06,1.06,0,0,1,1,1.1Zm0-14.68a1.07,1.07,0,0,1-1,1.11H247.67a1.07,1.07,0,0,1-1-1.11V99.71a1.07,1.07,0,0,1,1-1.11h51.69a1.07,1.07,0,0,1,1,1.11Zm0-14.67a1.06,1.06,0,0,1-1,1.1H247.67a1.06,1.06,0,0,1-1-1.1V85a1.07,1.07,0,0,1,1-1.11h51.69a1.07,1.07,0,0,1,1,1.11Zm0-14.68a1.07,1.07,0,0,1-1,1.11H247.67a1.07,1.07,0,0,1-1-1.11V70.35a1.06,1.06,0,0,1,1-1.1h51.69a1.06,1.06,0,0,1,1,1.1Zm0-14.68a1.07,1.07,0,0,1-1,1.11H247.67a1.07,1.07,0,0,1-1-1.11V55.68a1.07,1.07,0,0,1,1-1.11h51.69a1.07,1.07,0,0,1,1,1.11Zm0-14.67a1.06,1.06,0,0,1-1,1.1H247.67a1.06,1.06,0,0,1-1-1.1V41a1.07,1.07,0,0,1,1-1.11h51.69a1.07,1.07,0,0,1,1,1.11Zm0-14.68a1.07,1.07,0,0,1-1,1.11H247.67a1.07,1.07,0,0,1-1-1.11V26.32a1.06,1.06,0,0,1,1-1.1h51.69a1.06,1.06,0,0,1,1,1.1Zm0-14.68a1.07,1.07,0,0,1-1,1.11H247.67a1.07,1.07,0,0,1-1-1.11V11.65a1.07,1.07,0,0,1,1-1.11h51.69a1.07,1.07,0,0,1,1,1.11Z"/></g><path class="cls-13" d="M190.52,55.79h29.31v2.38H187.78a5.31,5.31,0,0,0-4.13,2A7.58,7.58,0,0,1,190.52,55.79Z"/><path class="cls-13" d="M289,58.17H257V55.79h29a8.19,8.19,0,0,1,7.37,4.62A5.34,5.34,0,0,0,289,58.17Z"/><path class="cls-13" d="M251.67,50.27a5.19,5.19,0,0,1,4.91,3.49l.1.32a2.63,2.63,0,0,0-2.35-1.42H222.47a2.65,2.65,0,0,0-2.21,1.19,5.19,5.19,0,0,1,5-3.58Z"/><path class="cls-14" d="M256.68,54.08A2.54,2.54,0,0,1,257,55.3v.49H219.83V55.3a2.63,2.63,0,0,1,2.64-2.64h31.86A2.63,2.63,0,0,1,256.68,54.08Z"/><rect class="cls-14" x="219.83" y="55.79" width="37.16" height="2.39"/><path class="cls-14" d="M257,58.17V61a2.65,2.65,0,0,1-2.66,2.65H222.47A2.64,2.64,0,0,1,219.83,61V58.17Z"/><path class="cls-15" d="M183.65,60.14a5.31,5.31,0,0,1,4.13-2h32.05V61a2.64,2.64,0,0,0,2.64,2.65h31.86A2.65,2.65,0,0,0,257,61V58.17h32a5.34,5.34,0,0,1,4.34,2.24h0a5.25,5.25,0,0,1,1,3.06V187a5.3,5.3,0,0,1-5.31,5.3H187.78a5.3,5.3,0,0,1-5.31-5.3V63.48A5.29,5.29,0,0,1,183.65,60.14Zm100,114.05V76.29a5.31,5.31,0,0,0-5.3-5.31H198.47a5.32,5.32,0,0,0-5.32,5.31v97.9a5.31,5.31,0,0,0,5.32,5.31h79.88A5.3,5.3,0,0,0,283.65,174.19Z"/><path class="cls-16" d="M283.65,76.29v97.9a5.3,5.3,0,0,1-5.3,5.31H198.47a5.31,5.31,0,0,1-5.32-5.31V76.29A5.32,5.32,0,0,1,198.47,71h79.88A5.31,5.31,0,0,1,283.65,76.29Z"/><g class="cls-17"><path class="cls-14" d="M268.93,85.53v1a2.65,2.65,0,0,1-2.65,2.64H210.52a2.65,2.65,0,0,1-2.64-2.64v-1a2.65,2.65,0,0,1,2.64-2.65h55.76A2.65,2.65,0,0,1,268.93,85.53Z"/><path class="cls-14" d="M268.93,107.94v1a2.65,2.65,0,0,1-2.65,2.66H210.52a2.65,2.65,0,0,1-2.64-2.66v-1a2.65,2.65,0,0,1,2.64-2.65h55.76A2.65,2.65,0,0,1,268.93,107.94Z"/><path class="cls-14" d="M268.93,130.35v1a2.64,2.64,0,0,1-2.65,2.65H210.52a2.65,2.65,0,0,1-2.64-2.65v-1a2.65,2.65,0,0,1,2.64-2.65h55.76A2.64,2.64,0,0,1,268.93,130.35Z"/><rect class="cls-14" x="207.88" y="150.11" width="61.05" height="6.27" rx="2.65"/></g><text class="cls-18" transform="translate(215.34 167.26) scale(0.81 1)">?</text><path class="cls-19" d="M296.47,177.65l.2,1.45a20.11,20.11,0,0,0-4.9-.25,24.66,24.66,0,0,0-4.62.66l-.15-1.14C287.69,177.68,295.06,177.18,296.47,177.65Z"/><path class="cls-20" d="M294.47,230.74a1.9,1.9,0,0,0,0,.79,6.27,6.27,0,0,1,.23,1.29s-.91.46-1.07-.24-.45-.88-1.21-.81a2.75,2.75,0,0,1-2.34,1.8c-.6,0-5.7.31-6.76.32s-4.15-.17-4.31-.54a1.35,1.35,0,0,1,.17-1.32c-.15,1,3.41,1.09,5.43.9s5.06-.17,5.88-.36.93-1.62,2.07-1.66a13,13,0,0,0,1.87-.17Z"/><path class="cls-20" d="M300.13,237.87c.8,2.44-.26,6.45-3.15,6.55s-4.17-4.18-3.48-5.68c-.19,1.61,1.42,4.57,3.5,5,3.09-1.08,3.22-4.3,3.06-5.9Z"/><path class="cls-21" d="M291.09,226.45h.32c.19.38.19,1,.72,1.09a21.17,21.17,0,0,0,2.26-.12l.2,2.84a2.11,2.11,0,0,0-.12.48h0a13,13,0,0,1-1.87.17c-1.14,0-1.25,1.46-2.07,1.66s-3.85.18-5.88.36-5.58.12-5.43-.9.4-1.46,1.6-1.77,5.81-.5,8.77-2c.83-.43.28-1.53.88-1.79Z"/><path class="cls-22" d="M294.59,230.26a2.28,2.28,0,0,1,1.83-1.58,2.84,2.84,0,0,1,1.92,1.1h0a3.43,3.43,0,0,1,1,2c.09,1.45.46,4.57.63,5.28a5.41,5.41,0,0,1,.14.83c.16,1.6,0,4.82-3.06,5.9-2.08-.47-3.69-3.43-3.5-5,.16-1.37,1.44-3.37,1.24-5.92a6.27,6.27,0,0,0-.23-1.29,1.9,1.9,0,0,1,0-.79A2.11,2.11,0,0,1,294.59,230.26Z"/><path class="cls-19" d="M288.18,187.2l2.95,17.31s2,15.08,2.79,20.73a4.72,4.72,0,0,1-2.9-.17,1.22,1.22,0,0,1-.21-.11l-2.17-19.71-1.49-25.74Z"/><path class="cls-20" d="M296.85,204,300,225.94a7.52,7.52,0,0,1-1.91,1.18,4,4,0,0,1-3.75-.12l-.24-.17c-.05-.36-.12-.9-.21-1.59-.75-5.65-2.79-20.73-2.79-20.73l-2.95-17.31-1-7.69a24.66,24.66,0,0,1,4.62-.66,20.11,20.11,0,0,1,4.9.25l1.12,8.1Z"/><path class="cls-22" d="M287,178.37c-.46-.45-.75-.76-.75-.76l.22-.73,11.18-2.78.41,2.17a.55.55,0,0,1-.26.57l-1.33.81C295.06,177.18,287.69,177.68,287,178.37Z"/><path class="cls-21" d="M285.92,168.93h0L284.39,171a1.82,1.82,0,0,1-2.57.35l-9.89-7.71.19-.46.94-2.33,9.35,6.1,3.44-7.46h0a18.15,18.15,0,0,0-.32,6Z"/><path class="cls-23" d="M289,149.54c-.05.2.28.88.34,1.6a4.55,4.55,0,0,1-1.52.41A9.78,9.78,0,0,0,289,149.54Z"/><path class="cls-21" d="M294.44,148.5s.87.06,1,.36a3.24,3.24,0,0,1-.9.52A6.44,6.44,0,0,1,294.44,148.5Z"/><path class="cls-21" d="M290.26,150.43l-1.63,2.64a7.68,7.68,0,0,0,.72-1.93c-.06-.72-.39-1.4-.34-1.6s1.42-.92,1.85-.95A3.7,3.7,0,0,1,290.26,150.43Z"/><path class="cls-22" d="M295,150.59a3.7,3.7,0,0,0-1.75.37,10.25,10.25,0,0,0-2.32,1.73l.14-2-.33,0a2,2,0,0,0,.13-.47,10.52,10.52,0,0,0,3.72-.77,3.24,3.24,0,0,0,.9-.52,3.42,3.42,0,0,0-.26,1.75Z"/><path class="cls-22" d="M288.63,153.07c.7-.13,1.73-1.51,2.09-2.45l.33,0-.14,2a10.25,10.25,0,0,1,2.32-1.73,3.7,3.7,0,0,1,1.75-.37,12.08,12.08,0,0,0,3,3.9,3.49,3.49,0,0,1,1.16,2.43l.8,14.8a2.16,2.16,0,0,1-1.64,2.22l-.67.16-11.18,2.78-3.77.94-.06-.29-.51-2.63,4.3-1.51-.51-4.45h0l-.39-3.42a18.17,18.17,0,0,1,2.59-11.6Z"/><path class="cls-24" d="M294.37,227a4,4,0,0,0,3.75.12l.22,2.66a2.84,2.84,0,0,0-1.92-1.1,2.28,2.28,0,0,0-1.83,1.58l-.2-2.84Z"/><path class="cls-25" d="M294.13,226.83l.24.17,0,.42a21.17,21.17,0,0,1-2.26.12c-.53,0-.53-.71-.72-1.09h-.32l-.07-1.38a4.72,4.72,0,0,0,2.9.17C294,225.93,294.08,226.47,294.13,226.83Z"/><path class="cls-26" d="M294.57,149.38a10.52,10.52,0,0,1-3.72.77,2,2,0,0,1-.13.47c-.36.94-1.39,2.32-2.09,2.45l.59-.95,1-1.69a3.7,3.7,0,0,0,.6-1.84,4.69,4.69,0,0,0,0-.91c-.38-.25-1.09,0-2-.9a4.68,4.68,0,0,1-1-2.52c-.49-.17-1-.32-.92-.84s.93-1.11,1.19-1.49.58-2.16.87-2.68c.61-1.29,5-1.3,6.58.39,2.88,3.55-1.08,6.6-1.08,7.94a4.75,4.75,0,0,0,0,.92A6.44,6.44,0,0,0,294.57,149.38Z"/><path class="cls-26" d="M270.9,157.65c.47-.36-.94-1.88-.37-2a.84.84,0,0,1,1,.34,1.56,1.56,0,0,1,.19.88c0,.44.48.56.51,1.59a4.65,4.65,0,0,0,.84,2.37l-.94,2.33c-.17-.75-1.31-1.25-2.78-2.24s-3.33-2.54-2.86-3.8c.77-2,2.08-1.26,2.18-.59A2.12,2.12,0,0,0,270.9,157.65Z"/><path class="cls-26" d="M282.13,174.9l.51,2.63c-.3.1-1.28.89-2,.9a12.29,12.29,0,0,0-1.89-.1c-.7.12-2,.85-2.53.49s-.8-.72-.79-1.07c-.19-.29-1.31-1.07-.56-2.21.2-.24,1,.9,1.65,1s2.69-.08,2.75-.54-1.15-.12-1.46-.32-.39-.74-.06-.81,2-.27,2.2-.28S281.75,174.43,282.13,174.9Z"/><polyline class="cls-27" points="286.43 173.39 295.42 170.25 293.75 159.26"/><line class="cls-27" x1="297.65" y1="174.1" x2="286.47" y2="176.88"/><path class="cls-27" d="M295,150.59a3.7,3.7,0,0,0-1.75.37,10.25,10.25,0,0,0-2.32,1.73l.14-2"/><path class="cls-27" d="M294.17,157.87a4.32,4.32,0,0,1,3.54-2.59"/><g class="cls-28"><path class="cls-29" d="M270.57,157.72a.62.62,0,0,0,.36-.1,2.45,2.45,0,0,0,.19,1.89C270.49,159,270.22,158,270.57,157.72Z"/></g><path d="M298.06,142.54a9.46,9.46,0,0,0-.91-3.1l0,0c-.33-.45-1.32-1.82-2.82-1.64a3,3,0,0,0-1.67-.8,4.68,4.68,0,0,0-3.65.72,1.32,1.32,0,0,0-1.13.34,1.82,1.82,0,0,0-.39,1.26,2.09,2.09,0,0,1,0,.38.45.45,0,0,1-.7.29l-.34-.23.15.38a1.2,1.2,0,0,0,.94.55,1,1,0,0,0,.56-.12.64.64,0,0,1,.19-.07s.12.07.17.13a.45.45,0,0,0,.25.18c.11,0,.21-.1.36-.28a3.49,3.49,0,0,1,.32-.35.24.24,0,0,0,0,.15.26.26,0,0,0,.14.11.64.64,0,0,0,.31-.05.85.85,0,0,1,.4-.06c.35.1.4.4.42.78s0,.44.21.48a.82.82,0,0,0,.65-.21c.25-.17.36-.22.47-.1s.17.72.08,1.22a3.32,3.32,0,0,0,.1,1.31,1.23,1.23,0,0,1,0,.21l.05.47.19-.44c0-.08.09-.22.15-.37.12-.37.39-1.11.59-1.17a1.25,1.25,0,0,1,.78.35c.22.17.3.31.29.36a6,6,0,0,1-.15.66,4.53,4.53,0,0,0-.3,1.87,1.7,1.7,0,0,0,.46.65.93.93,0,0,1,.1.1c.07.08.13.29.06.84l.24.06a2.57,2.57,0,0,1,.89-1.14l.05,0a6.12,6.12,0,0,1,.57-.34,2.85,2.85,0,0,0,.92-.64A5.68,5.68,0,0,0,298.06,142.54Z"/><ellipse class="cls-26" cx="293.58" cy="143.04" rx="1.25" ry="0.86" transform="translate(78.21 388.52) rotate(-74.71)"/><ellipse class="cls-30" cx="293.58" cy="143.04" rx="0.73" ry="0.5" transform="translate(78.21 388.52) rotate(-74.71)"/></g></g></svg>